<?xml version="1.0" standalone="no"?>
<svg xmlns="http://www.w3.org/2000/svg" version="1.1" viewBox="0 0 7200 5900"><defs>
<style>
 .st0, .st1 {
 fill: #ABD7B1;
 }

 .st2 {
 fill: #fff;
 }

 .st1 {
 stroke: #000000;
 stroke-linecap: round;
 stroke-linejoin: round;
 stroke-width: 10px;
 }
</style>
</defs><g><rect width="7200" height="5900" fill="white"/></g><g><path d="M 408 5195 C 276.16666666666663 5179.166666666667, 363.1666666666667 5303.666666666667, 474 5011 C 584.8333333333334 4718.333333333333, 760.8333333333333 3531.8333333333335, 1073 3439 C 1385.1666666666667 3346.1666666666665, 2183 4227.166666666667, 2347 4454 C 2511 4680.833333333333, 2237.3333333333335 4691.333333333333, 2057 4800 C 1876.6666666666667 4908.666666666667, 1539.8333333333333 5040.166666666667, 1265 5106 C 990.1666666666667 5171.833333333333, 539.8333333333334 5210.833333333333, 408 5195 Z" stroke="#7F6000" stroke-width="840" stroke-linejoin="round" fill="#7F6000"/><path d="M 408 5195 C 276.16666666666663 5179.166666666667, 363.1666666666667 5303.666666666667, 474 5011 C 584.8333333333334 4718.333333333333, 760.8333333333333 3531.8333333333335, 1073 3439 C 1385.1666666666667 3346.1666666666665, 2183 4227.166666666667, 2347 4454 C 2511 4680.833333333333, 2237.3333333333335 4691.333333333333, 2057 4800 C 1876.6666666666667 4908.666666666667, 1539.8333333333333 5040.166666666667, 1265 5106 C 990.1666666666667 5171.833333333333, 539.8333333333334 5210.833333333333, 408 5195 Z" stroke="#FFE599" stroke-width="800" stroke-linejoin="round" fill="#FFE599"/><path d="M 1106 1602 C 1157.8333333333333 1399.8333333333333, 1380.6666666666667 1178.1666666666667, 1452 1346 C 1523.3333333333333 1513.8333333333333, 1585.8333333333333 2406.8333333333335, 1534 2609 C 1482.1666666666667 2811.1666666666665, 1212.3333333333333 2726.8333333333335, 1141 2559 C 1069.6666666666667 2391.1666666666665, 1054.1666666666667 1804.1666666666667, 1106 1602 Z" stroke="#7F6000" stroke-width="840" stroke-linejoin="round" fill="#7F6000"/><path d="M 1106 1602 C 1157.8333333333333 1399.8333333333333, 1380.6666666666667 1178.1666666666667, 1452 1346 C 1523.3333333333333 1513.8333333333333, 1585.8333333333333 2406.8333333333335, 1534 2609 C 1482.1666666666667 2811.1666666666665, 1212.3333333333333 2726.8333333333335, 1141 2559 C 1069.6666666666667 2391.1666666666665, 1054.1666666666667 1804.1666666666667, 1106 1602 Z" stroke="#FFE599" stroke-width="800" stroke-linejoin="round" fill="#FFE599"/><circle cx="1510" cy="5262" r="400" fill="#EA9999"/><circle cx="1240" cy="4951" r="400" fill="#B4A7D6"/></g><g><path class="st1" d="M1689.7-.8c-10.7,6.5-.5,12.3,6.6,6.6,9.4-5.8,11.1,1,13.3,9.3,66.4,243.1,47.7,506.4,177.8,728.9,3.8,6.7,5.5,13.1,3,20.6-3.2,12.6,3.1,25.8,6,38,9.6,28,18.6,56.2,30.5,83.4,5.7,15.8,20.3,30.6,15.2,48.4-9.9,47.7,15.6,92.3,42.7,129.4,6.9,12.7-11.9,9.8-3.7,36.4-.8,14,2.3,27.2,7.6,40,.7,16.8,6,32.5,10.9,48.4,0,40.8,22.7,63.3,31.5,100.4,2.6,18.6,17.2,34.3,16.3,53.3.3,17.2,22.6,29.4,34.7,39.2,25,18.5,47.3,40.1,70.8,60.3,5,3.6,7.9,10.1,11.4,14.9-4.1,14.8-2.6,31.7,4.4,50.7-14.9,12.2-9.7,36.9-1.1,51.6,2,5.8,15,18.1,5.1,21.5-3.4,1.2-6.8,2.5-11.2,1.2.4-29-10.6-23.5-8.4-43.2,2.1-16.1.3-31.5-9.2-45.6-7-14.1-15.8-27.4-22.2-41.8-2.7-6.7-6.1-13-11.3-18.3-6.6-8.4-12.1-18.1-20-25.5-7.3-7.1-15.1-13.5-18.6-23.5-10.9-15.2-25.7-25.2-43.6-31.2-3.8-6-5.5-13.5-11.4-18-10.6-7.1-17.6-16.9-22.1-28.7-4-8.2-6.8-18.6-15-23.3-20.5-10-20.2-37.1-40.4-46.5-138.3-75.4-381.5-88.9-454.4,79.9-29.2,75.1,38.1,72.7-10,147.7-88.9,179.6-143.2,385-168.2,580.1,5.2,5.4,3.2,11.6,2.9,18.1-.9,78.4,47.4,215.4,120.5,251.7,12.9,2.2,14.5,18.4,29.9,23.6,8,3.7,14.2,9.8,15.9,19.2,6.4,16.7,12.8,34.1,25.7,46.8,3.1,10,1.8,20.6,6.8,29.8,1.3,2.3,1.1,5.6,1.1,8.5-.4,17.3,12,36.7,0,52.4-9.9,14.3,5,28.4,9,42.1,3.4,9.5,5.6,19.5,10.1,28.5s3.6,15.5,7.8,22.3c2.3,9.3-5.4,14.1,4.5,24.1,3.7,8.7,13.3,11.1,18.6,17.4,7.1,13.7,20.3,21.9,32.8,30.4,13.5,11.2,71.6,26.5,75,.8-.8-6.9-3.3-20.9,8.3-15.3,7.5,4,12.5,9.8,12.3,18.8,1.6,17.9,4.6,35.5,10.7,52.7.7,2.7,1.1,6,0,8.4-5.2,12.9-3.7,25.4,1.6,37.7,6.1,12.6-5.5,20.8,3.2,35.6,3.6,7.3,5.4,14.9,4.9,23.1-.5,8.8,4.2,16.9,4,25.6-.2,9.1,4.5,16.6,6.7,24.9,6.5,19.3-.6,27.4,20.5,39.6,0,18.2-22.7,2.5-19.2,43.1-24.8,13.9-16.9,25.3-23.4,50.2-8.5,7.3-17.9,16-17.6,28.1-.2,10.8-1.5,21.8,1.7,32.3,1.9,6.3,0,11.3-3.5,16.2-6.9,7.8-11.8,16.3-12.4,27,0,.7-1.8,1.4-2.9,1.8-6.2-6-3.7-16.9-5.2-24.7-1.5-8.1-.4-15.6,3.1-23.2.2-7.2-.3-14.5.5-21.6,14-33.4-11.8-84.9-22.3-118.6-25.3-57.8,23.6-36.3-43.2-112.2-10.8-9.3-38.6-38.2-52.4-25-6.8,4.5-21.7,3-29.2-.4-10.4-6.9-22.9-.7-33.6-6.2-11.6-5.5-24.5-11.1-37.1-4.5-9.4,3.2-28.7,14.5-35.9,3.7-5.3-22.4-12.4-44.4-15.7-67.3-.8-5.5-4.4-8.8-10.3-9.4-5.7,4.5-9.6,11.3-17.8,10.4-76.1.9-102.7,84.5-118.8,148.4-8,24.8-22.6,46.8-27.2,72.8-9.2,24.4-18.5,40.4-16.5,66.5.2,27.6-9.2,53.8-19.6,78.9-7.2,22.8,1.5,40.1-27,48.6-19.8,9.2-14.5,34.3-19.5,52-.3,1.6-1.9,2.3-3.5,1.6-17.7-7.3-23.7-28.6-32.5-44-5.4-13.5-16-21.6-25.7-31.9,10-38-6.4-75.7-10.2-113.5-3.7-36.6-8.7-73.3-20.8-108.1-5.9-21.2-12.5-43.9-12.4-65.6,3.9-7.7,3.3-15.3.4-23.1-5.2-11.7,16.1-16.1,14.8-31.3-1.3-32.8,11.3-39,18.1-68,4.2-15.3,10-29.8,15.5-44.7,4.3-9,11-17.2,12-27.7,0-1.4.9-2.9,1.8-3.9,9.7-9.2,10.6-21.8,13.1-33.6,3.2-16.2,9.4-31.7,10.4-48.3,17.6-43.3,15.5-103.7-16.1-140.9-24.1-20,11.1-40.1.6-64-15-44.8-14.9-94.5-9.4-140.6,6.8-12.5,14.7-25.4,14.3-40.1,8.5-29.5,32.8-55.5,32-88.4,1.3-30.9,53.4-51.5,44-87.3-6.2-13.5-6.7-27.9-6.3-42.5-8.1-31.6,0-65.4-8.5-96.4,13.2-114.1-177.9-264.1-101.9-360.5,12.7-12,36.7-18,26-40.4-8.2-15.5,6.7-16.6,13.8-28.1,1.7-19-.5-39.3,8.1-57.1,2.3-5.2,2.1-11.4,2.8-16.9,8.2-17.3-7.6-34.6,4.5-50.1,2.5-4.1,7.2-7.7,8.3-12.5-.5-13.3,14.5-23.5,10.3-36.4-12.2-20.7-3.5-45.5-6-68.1,2.1-14.8,6.6-29.6,9.9-44.3,1.7-11.3,13.2-17.5,11.9-29.3,3.8-23.5,7.3-47.1,7.4-70.9-2.8-21.2,5.1-41.3,4.2-62.4.2-15.1-2-30.3.2-45.3,1.5-13.9,5-26.8-.7-40.4-3.5-10.9-5-22.5-7.1-33.8-.5-2.8-.8-6.2.3-8.6,4.5-9.3,1.2-18.4,0-27.6-3.2-19.1,13.5-22.1,5-45.7-3.1-11.8,9-12.5,7.3-30.3-.3-15.2.3-30.4-.4-45.5,0-18.8-7.5-36.9-4.5-55.8,3.7-14.5-6.3-27.4-9.2-41.2,8.2-8.6,9.6-17.4,6.4-28.4-.5-6.5.9-13.5-1.2-19.3-6.7-19.1-21.3-34.5-26.1-54.3-4.7-20.8-19.3-40.5-13.7-62.4,1.6-29.4,5.4-59,11.8-87.7,7-10.4,6-22.1,5.9-33.5,0-13,2.3-26-.6-38.9-.4-1.8.3-4.4,1.4-6.1,8-12,8.5-25.9,9.3-39.9,48.1-40.3,76.5-142.4,37.4-195.3-6.6-6.3-10.4-13.6-12-22.5"/><g>
 <path class="st0" d="M391.4,5643.7c-1.9,0-3.7-1-4.7-2.7-17.9-17.6-16.9-12-32.9-11.2-4.2-.3-8.5,0-11.9-2.6-15.3-11.7-16.1-14.9-21.5-32-16.5-45.7-15.7-52.4-4-98.8,4.8-22.6,29.3-39.3,26.9-63.3-.1-9.4,12.2-3.6,15.1-8.8,3.4-3.7,5-11.1,4.4-18,0-7.6,0-16.1,4.5-23.8,8-40.7-16.9-77.4-37.6-110.3h0c-12.2-23-41-4.5-51.6-28.4-4-10.4-9.5-20.5-14.6-30.8-12.7-7.4-35.3-4.9-36.7-27.1,4.8-12-7.6-21.2-2.9-33.1,1.2-7.1,2.6-15.8,10.3-19.8,29.5-32.5,20.1-78.6,11.8-119.4-1.3-6.9-3.3-13.9,2.1-20.5,17.5-31.9,34.3-36.3,49.9-36.3,16-.6,29,5.6,40.7-11.1,4.1-9.8,12.1-13.8,19.3-17.3,8.4-4,15.4-8.1,16.3-19.5,1-4,7.1-23.7,16.6-20.9,22.5,10.2,14.5,26.7,26.6,26.9,13.5-1,16.7-5,17.4-11.7-3.9-34.6,16.6-26.6,25.6-54,5.9-36.4,72.8-41.4,59.9-74.7-6.2-6.6-9.3-14.9-13.8-22.3-8.3-7.5-12.7-17.9-17.6-27.6-7.9-14.1-14-18.4-20.4-22.9-7.7-5.5-15.6-11.2-25.3-31.7-.4-14.2,5.7-28.6,9-41.7,2.7-5.5,1.5-15.5,8.4-17.4,9.3-1.4,23.6.5,28.8-3.2,3.1-2.2,6-7.2,10.3-17.9.8-1.9,2.6-3.1,4.6-3.1,2,0,.8,0,1.2.2,16,4.4,37.3,40.6,54,42.7,5.5.9,6.6,4.9,7.6,9.1,1.1,5.2,2.8,8.6,7.4,9.4,16.1,2.4,29.2,11.6,42.5,19.7,1.8.7,3.1,2.4,3.2,4.5.4,8.9,8.1,12.1,15.1,12.1,12,.3,13.1-6.1,20.5-8.7,17.4,4,19.8-7.9,34.1-11.1,7.6-2.7,19.9-8,24.3-.5,5,10.1-14.2,18.6,6.9,26.6,13.3,2.4,26.4,7.5,40,15.5,4,1.7,8.3,2.6,12.8,2.6,36.2,0,79.4-58.4,99.4-93.1,4.3-12.6,3-27,4.4-40.5.8-23.4-18.9-42-25.6-63.9-5.7-18.4,16.2-36.2,4.3-53.3-10.7-14.5-9.1-33.6-15.9-49.1-4-10.2,1-20.1,7.1-28.7,7.8-8,5.5-24.4,16.9-30.7,9.3-4.8,17.9-13.3,28.9-14.2,8.7.1,12.3-4.5,17.9-11,87.5-19.1,52.9-178.9,52.7-245.1.8-10.6,12.2-12.3,13.5-23.3,2.7-10.9,9.9-17.2,12.2-27.5,19-22.2,20.8-50.3,21-79.6,31.1-93.6-9.1-193.2-42.1-273.2-25.6-62.6-45.9-112.1-19.8-136,8.7-15.9.5-17.6,14-34.6,16.1-22.2-13.2-34.4-.2-58.6,1.2-2.5,4.7-3.7,7.1-2.1,7.6,4.3,5.7,14.9,8.7,20.9,7.1,4.8,12.3,4.4,19.4,1.4,6.6-2.8,15.1-3.9,19.4-2.9,9.2,0,20.2-5.2,28-13.3,6.6-6.9,10-14.7,9.7-22.1,0-13.6,8-28.2,22.4-28.6,5.3-.3,9.9,1.8,12.1,7.3,6,30,18,18.8,26.7,41.2,3.2,17,17,26,31.2,35.6,10.1,6.7,22.4,14.8,28.5,24.6,38.1,57.8,85.5,111,130.8,160.7,11.1,10.4,7.4,25.4,18.5,34.9,5,5.5,10.3,11.4,9.7,19.3-1.2,15.8,10.5,24.3,19.8,34.9,5.4,8.6,7.4,18.4,14.3,25.9,6.8,7.2,11.5,16.4,16.5,25,13,20.2,30.4,37.1,47.3,53.5,17.7,17.2,36.1,35.1,49.6,56.8,26.9,39.3,74.2,57.6,108.2,89.7,11.6,12.9,28,22.3,42.6,30.6,10.1,5,6.1,19.5,14.6,23.9,100.4,70.1,213.7,103.8,324.3,124.2,13,.1,10.1-.8,16.7-1.4,9,2.3,6.4,10.2,7.8,39.6h0c14.5,9.9,10.7,26,23.7,35,26.2,20.7,172.5,52.2,199.4,12.4,11.3-18.3,36-23.9,41.2-45.9,6-11.7,27.1-17.9,30.5-30.1.2-3.8,2.6-7.3,6.3-9.1,21.6-12.1,36.3-32.7,58.1-44.8,16.3-8.5,15.4-27.2,26.4-40.2,12.9-12.1,22.6-25.2,31-43.2,1.4-3.2,6-3.7,8.3-1.1,1.9,2.1,3.7,6.8,3.3,11.2-.2,10.4,4.8,19.2,7.3,29.1.4,1.4,0,3-.8,4.2-3.5,5-5,10.6-6.6,16.5-3.1,15.3-12.4,29.3-21.4,39.8-15.7,16.8-17.1,27.9-18.4,38.7-3.2,38.9-59.7,64.3-59.1,126.8-2.8,33.7-28.8,24.2-3.3,69.4,6,9.3,10.9,20,15.3,29.4,3.8,10.4,8,17,16.8,19.7,6.2,2.6,12.4,5.7,11.9,12.7,0,5.4,0,9.6,4.1,13.8,9.5,18.1,12.9,38.7,17,57.7,4.6,22.5,8.9,43.8,20.2,63.5,1.1,1.9.8,4.2-.6,5.8-4.3,4.3-10.8-2.2-15.2-1.2-11.2-.1-14.1,14.6-4.1,17.7,6.4.3,31.7-.1,21.8,12-2.6,1.7-2.7,9.9,2.1,11.1,14.3-2,26,10.6,34.6,9.5,1.8.2,5.1-.4,5.3-1.1,1-3.7-2.8-9.1,4.7-10.2,8.2,2.8,16.4,7.8,21.4,7.1,4.9.5,10.6-2.8,14.7-13.1,8.1-11,21.5-16.1,28.7-27.4,7.6-6.2,17.3-11.3,22.1-19.6,8.5-9.2,17.8,7.2,43.8-5.1,6.9,2.1,25.2,3.1,19.9,13.5-9.8,12.2-20.3,18.7-31.1,19.3-10.8,0-16.6,7.5-27.8,7.9-11.7-2.3-17.3,4.7-23.3,17.1-1.2,2.7-4.9,2.9-6.1,2.7-14.2,1-7.3,31.6-16.4,38.3-6.7,4-1.3,9.3-6.4,12.9-5,2.3-5.3,9.6-11.7,5.1-15.7-11.1-41.3-1.7-59.9,2.2-13.6,3.9-26.2,3.3-37.6,11.8-12.7,9.5-17.8,12.9-27.1,6-2.3-1.5-3.6-2.3-5.8-2.3s-.2,0-.3,0c-14.3.6-24.7,17.7-19.5,30.8,2.4,6.6.4,2.8-.3,4.1-.7,1.3-1.8,2.2-3.2,2.5-8.9,2.7-4.3,16.2-14.9,20.1-6.7,3.5-15.6,6.6-15.7,13.9.5,13.2-25.1,17.6-25.4,17.7-6.7-.5-23.7-3-30.5-1.8-3,.5-5.1-2.5-6.8-4.4-4.6-6.2-20.6-16.8-8.7-23.4,7.1-.3,12.5,9.7,21.6,9.6,27.1-12.8,6.9-27.9-13.5-27.7-3.8-.6-5.5,1.5-7.6,5.6h0c-.9,1.7-2.6,2.7-4.4,2.7s-.2,0-.2,0c-7.5-.3-15.6-2.6-21.8,2.7-10.7,9.3-18.2,20.9-22.6,33.9-4.8,8.4,18.7,17.8,15.8,25.9-.8,1.8-2.6,3-4.6,3s0,0,0,0c-13.6-.2-24.9-1.2-36-5-5.6-2.8-12.3-3.9-20.7-3.8-11,0-18,1.5-28.2.4-8.7.8-14.5,4-23,4.1-14.1-2.2-36.8-6.6-43.1-20.4-147.8-51.1-439.9,278.7-408.9,424.6-2.6,17.4-6.2,34.3-7.5,52.2-.3,37.3-25.8,31.5-28.5,75.9-6,18.6-36.6-27.7-34.2-26.8-3-7.6-10.1-16.4-20.1-22.5-10.8-8.2-23.1-14.6-35.4-20.5-37.4-41.1-62.6-17.4-106.1-51.2-25.2-5.8-34.1-12.8-43.5-20.3-8.1-8.1-32.9-19.7-48.4-26.1-17.1-.5-20.4-19.6-35.1-23.6-14.4-1.4-24.1-12.5-35.4-19.6-30.2-14.9-48.7-63-83.4-65.8-20.1-2.2-37.1-7.9-50.9-21.8-98.1-117-219-50.7-320.3,32.1-26.6,10.4-41.8,39.5-61.1,59.9-5,4.2-7.3,17-15.4,17.7-3.8,0-7.9-2.9-11.3-4.4-4.2-2.5-2.4-9.4,2.7-9.2,1.3.6,12.1-3.5,11.6-9.3-1.1-5.4-8.2-7.5-17.7-9.9-9.3-2.1-20.7-5.9-20-16.1-.5-3.9-4.6-33-20.3-38.6-7.2-2.8-12.5-8.1-17.9-13.2-19.4-15.4-4.7-23.1-31.3-40.9-15.6-16.1-31.7-10.1-50.7-2.8-2.9.8-5.5,2.9-8.7,1.6-11.3-4-12-9.5-24.8-9.6-5.5,0-9.7-.4-14.6.9-33.2,14.3-90.5,126.1-78.7,160.8,7.7,37.8,29.9,23,50.2,40.4,7.1,5.7,13.8,12.6,21,20,16.2,16.3,31.8,32.9,51.1,32.8,18.5.2,12.9-3,21-7.3.3-.1,4.9-1.9,7.8-1.9,2.8,0,.6,0,1.7.3,5.2.9,10.4-1.1,15.4-2.9,6.6-2.1,14.1,6.7,20.2,9.4,1.1.7,1.7,1.5,2.1,3.1,3.2,10,6.2,12.4,9.4,15,13.2,10,6.2,22.3,27.8,35.5,20,8.3,25.6,29.8,37,45.5,21.8,29.9,53.8,10.4,76.7,41.5,1.1,10.9,7.5,13.1,14.1,18.6,6.1,5.4-6,15.9-13.4,16.8-6.2,0-.8,0-1.2-.1-1.7-.2-3.2-.4-4.6-.4-24.1,2.4-14.8,38-64.1,38.6-1.5,0-2.9-.6-3.9-1.7-13.4-15.8-29.4-20.5-51.7-25.9-9.8-3.2-25.7-7.9-34.8-2.9-9.1-.9-1.5-12.7-8.6-18.6-4.6-5.4-12.8-9-20.6-9s-9.8.8-13.3,5.8c-1.6,1.6-3.3,3.8-3.5,6.4-.6,6.3-2.7,12.3-4.8,18.1-1.7,3.5-1.5,8-4.7,10.3-10.1,6.2-19.2,13.1-28.7,21.5-2.5,2.1-4.7,1.1-7.6,1.2-34.2-2.2-27.7,35.9-30,63.2,1,11.8,5.8,20.9-7.5,32-19.9,5.4-39.7,13.1-58.5,22-7.5,11.5-21.2,45.7-27.1,42.4v-1.5Z"/>
 <path d="M1077.5,3404.4c4,0,5.3.6,7.1,3.4,7.5,33.3,21.6,23.9,26.8,41.5,5.2,24.6,28.9,33.8,46.3,47.4,5.6,4,10.4,8.4,14.1,14.1,38.3,58,85.9,111.6,131.4,161.4,10.2,9.9,6.6,24.8,18.9,35.2,18,20-4.1,23,28.5,52.9,5.4,8.8,7.2,18.6,14.9,26.7,6.3,6.7,11.1,15.9,15.9,24.2,26.8,41.7,70.4,68.2,96.7,109.9h0c27,40.2,75.1,59,109.3,91.2,12,13.4,28.7,22.8,43.5,31.3,8.3,4.7,3.7,18.8,15,24.1,89.1,60.4,191.9,101.2,289.6,115,16.4,10,38.7,11.5,53.5,8.2,2.6,2.2,2.7,24.9,2.8,34.6,0,1.5.7,3,1.9,3.9,13.9,10.2,9.9,26.2,24.2,35.3,30.8,22.2,176.1,54.2,206.1,11.2,10.9-18,36-23.3,41.6-46.5,6.5-11.6,28.2-17.5,31.1-31.9,0-2.5,1.7-4.4,3.6-5.3,21.8-12.1,36.9-32.9,58.1-44.9,18.2-9.6,17.2-28.2,28-41.5,14.7-13.7,24.1-28.4,31.6-44.2,1.1,1.2,2.4,4.7,2.1,7.6-.3,11.5,4.8,20.6,7.5,30.6-5.7,8-6.6,16.9-9.5,25.5-3.4,12-10.9,21.3-18.1,30.2-30.1,32.2-11.2,46.2-30.1,68-22.8,26-48.8,61.1-48.7,100.9-.5,27.6-30.2,22.3-2.6,72,5.8,8.9,10.5,19.1,15,28.9,4,10.5,8.7,18.8,19.4,22.2,5.9,2.6,8.6,4.1,9,7,0,6-.3,12.4,5.5,18.4,17.6,38.8,15,82.6,36.4,120.2-21.6-12.5-38.7,17.1-16.5,24.8,6.6.9,14.2-.4,20,2.8-7.3,4.7-4.1,20.3,4.8,20.3s.3,0,.4,0h2.4-1.3c.9,0,1.8-.3,2.8-.3s.2,0,.2,0c10,.4,18.5,9.7,29.3,9.7,1.7-.1,13.9,1.4,10.6-11.2,16.5,8.7,30.3,12.8,40.2-8.1,7.4-10.4,20.8-14.8,27.7-26.5,8.1-6.5,17.9-11.5,23.3-21,2.4-1.4,4.2,0,7.1.4,10.8,3.3,21.7,2,32.4-3.1,4.2,1.4,13.1,2.4,16,5.2-7.2,8.9-16.5,16.8-27.5,17.4-11.7,0-17.4,7.4-27.8,7.9-14.2-3.4-22.6,9-27.6,19.8-16.9-1.7-17.3,26.4-19.2,37.7-3.5,3.6-8.6,6-7.7,14.3-1.9,1.1-5.5,3.4-5.9,5.7-20.9-15.3-57.8,1.1-78.5,4.5-15.6-1-28.2,14-39.8,18.1-2.7,0-.2,0-.3,0-5.8-.7-8.2-6-15.1-6-18.6.8-30.7,20.7-24.5,37.5-12.5,3-7,16.8-15.9,20.5-7.2,4.1-17.7,6.8-18.5,18.3.5,6.8-14,11.6-21.2,12.8-7.9-1.3-21.2-2.8-30.3-1.8-4.8-5.3-9.8-10.6-14.3-15.9,0,0,0-.6.7-2.1,6.2,4.2,11.4,9.1,20.9,9.8,14.3-4.5,19.3-17.2,17.1-21.7-2.6-10.4-18.1-16.1-31.3-16.1s-2.1,0-3.1,0c-4.9.6-7.3,5.3-8.9,8.3-9.3-.5-16.7-2.8-25.1,3.7h-.1c-11.1,9.8-19.2,21.7-23.9,35.4-5.4,9.9,8.4,19.1,15.6,26.3-11.8-.2-23.4-.9-34.5-4.7-6.2-2.8-13-4-21.8-4-9.6,0-14.9.8-21,.8-12.8-1.6-20.9,3.3-30.9,3.7-7.4,0-7.4-.7-12.3-2.8-11.7-3.1-23.9-6.3-26.7-16.2-166.9-56.1-453.5,298.3-417.7,429.7-5.5,23.1-6.8,45.6-9.7,68.7-14.8,20.9-23.4,26-26.4,57.4-30.1-21.4-19.7-34.2-42.8-50.4-12-8.3-23.9-17-38.3-22.3-36.7-41.9-61.2-17.7-107.7-52.6-44.6-10-35.8-23.2-75.5-38.8-6-1.8-11.3-6.8-17.9-8-14.6,0-18.1-19.8-35.1-23.6-13.3-1.3-23-13.1-34.3-19.4-30.1-16.2-48.2-63.5-85-66-13.3-1.8-26-5.2-36.3-10.7-8.1-8.7-18.1-13.5-25.6-23.1-100-103.7-209.9-34.2-311.8,44.9-26.9,11-42.5,39.4-61.2,60.1-5.4,3.6-7.5,14.8-12.7,16.9-3.1-.6-6.1-2.6-8.6-3.7,5.8.3,17.3-6,16.8-14.6-3-18-38.7-10.8-37.8-25.7-.4-3.7-4.6-35.9-23.2-43.1-9.8-3.7-16.2-13.2-24.7-19.7-6.5-27.3-18.9-28.4-35.1-43.1-16.1-6.2-34.1,2.2-48.6,7.5-13-5.1-12.9-9.8-26.6-10-8,.2-9.2-.3-15.9,1-37.8,17.7-93.2,125.1-82.7,166.1,9,43.1,35.6,28.5,51.7,43.7,23,18.3,46,54.2,75.1,54.2s15.1-2.3,23.3-7.7c1.8-.7,4.9-1.5,6-1.5s.3,0,.3,0c6.6,1.4,13.5-1.1,19.5-3.3,4.9,2.9,9.7,5.9,14.8,9.1,7.3,23.5,15.5,12.3,20.7,34.4,4.8,8.9,11.7,14,19,19.5,18.7,7.4,24.1,28.8,35.4,44,22.1,30.1,47.5,12.5,75.7,38.9,1.4,13.5,9.5,16.6,15.8,21.9,0,.6-6.6,8-10.2,8s-.3,0-.4,0c-33.6-5.6-17.8,36.7-69.7,38.2-14.6-17-31.7-22-53.9-27.4-10-2.9-25.9-8.6-36.4-3.2,4.2-23.2-32.8-37.6-46.6-19.8-2.4,2.1-4.1,5.6-4.4,8.8-.7,8.3-4.6,16.5-7.1,24.7-10.2,6.3-19.6,13.3-29.4,22-43.3-3.6-37.3,35.8-39.2,68,1,12,5.3,19.3-5.6,28.2-20.5,4.3-40,13.6-58.5,21.8-3.8,3.5-20.6,41.5-24,41.5s-.4-.2-.5-.6c-23-24.2-23.4-10.1-45.4-14.3-15.2-12.3-14.3-11.3-20.5-30.2-16.3-45.3-15.2-51.2-3.9-96,5.2-22.5,29.7-39.2,27-65,0,0,.9-.9,5-.9,21.5-1.8,9.5-33.7,18.6-47.3,9.1-42.9-17.1-81.4-38.1-114.8-14.9-25.6-43.7-8.2-51.2-27.6-4.3-11.1-10-21.4-15.2-32.2-11.3-9.2-31.1-3.8-35.9-22.2,3.6-10.6-.8-18.2-4.1-26.8,2.4-8.8,1.6-20,9.8-23.6,33-35.5,21.3-86.8,12.9-128.1-1.1-5.9-1-9.6,2-13,23.9-41.1,37-33.7,64.5-33.6,9.5,0,17.4-2.1,26.3-14.2,7.4-19,32.6-12.6,36-37.6,1.6-6.1,3-11.9,9.6-18.1,23.7,11.9,10,25.8,28.8,27.4,12.2-.8,21.4-4.1,22.5-16.8-4.3-31.2,14.8-22.2,25.4-52.4,20.1-53.8,94.2-32.7,45.2-101.7-7.9-6.9-12.2-17-17-26.7-18.1-32.1-28.3-17.8-45.6-54.4,2.5-18.1,8.4-34.5,13.2-52,29.2-2.3,32.2,3.5,43.4-24.3,13.3,3.4,35.2,40,54.5,42.8,1.9.3,2.3.7,3.5,5.4,1,4.3,3,11.8,11.5,13.1,15.4,2.2,28,11.5,41.4,19.4.6,20.8,31.7,21,40.7,8.2,8,1.7,16.2.3,23.1-4.5,2.9-3.9,7.4-5.3,12.6-6.8,5.1-1.8,26.2-10.8,16.4,4.6-5.8,9.1,2.9,20,12.5,21.6,12.8,2.3,25.4,7.2,38.6,15,4.9,2.2,10,3.2,15,3.2,44.9,0,93.2-77.3,104-96.1,4.8-13.6,3.4-28.3,4.8-42.2.9-25-18.6-43.6-25.9-65.6-4.8-17,17.3-35.2,3.6-54.8-10-13.7-8.3-32.5-15.4-48.1-2.9-7.3.2-14.5,5.8-23.1,8.9-8.2,6.5-24.6,16-30.1,8.9-4.3,17.2-12.8,26.8-13.5,11-.2,15.2-5.7,21.3-12.8,84.8-10.8,56.2-187,54-248.5,1.3-7.1,11.4-9.6,13.5-22.4,2.2-9.7,9.9-14.5,11.1-25,20.4-23.8,22-53.4,22.2-82.8,55.7-168.9-118.7-357.4-63-406.1,10-17,1-18.3,14-34.8,18.3-24.7-11.1-36.6.3-59.4,5.9,3.5,3.2,16.2,8.1,20.6,13.7,10.2,22.1.3,36.3-.9,9,0,.8,0,1.2,0,21.1,3.2,47.8-17.5,47.1-40.1,0-9.7,5.3-23.3,17.5-23.6M1077.5,3394.4c-17.6.2-27.3,17.5-27.5,33.5.3,6.3-2.5,12.8-8.3,18.8-8.6,9.5-23.2,13.2-28.3,11.5-12.7-1.7-20.9,9.8-30.9,3.5-1.8-7.6-1.3-16.1-10.1-21.9-4.8-2.9-11.7-1-14,4.1-13.9,26.3,14.3,38.8.7,57.8-12.8,15.6-6.8,20-13.9,34.6-15.6,15.8-15.1,35.7-10.2,58.9,30.8,108.4,112.2,229.9,71.1,353.4,1.3,32.6-5.2,57.5-22.1,81.7-1.6,8.3-9,13.9-10.9,24-.5,4.5-2.8,6.9-5.7,9.9-14,12.3-5.7,29.9-5.7,49.4,2.6,53.3,21.4,191.1-47.6,203.8-2.9.3-5.4,2.1-7.2,4.4-5.7,6.7-7.5,8.3-13.6,8.3-12.6,1-21.1,9.7-31,14.8-12.7,7-10.9,22.4-17.7,31.3-17.1,21.9-7.9,29.5-3,53.2,2.1,10.5,4.2,21.4,11.3,31,9.3,14.5-11.7,34-5.1,51.7,6.3,21.4,25.8,40.1,25.5,62.3-1.4,12.8,0,27-4,38.7-7.3,17.2-67.1,97-94.8,90.2-15.9,0-7.1-.7-10.5-2.1-14-8.2-27.6-13.4-41.4-15.9-2.6-.3-7-3.7-5.8-6.4h0c12.5-20.5-7.9-30.1-27.1-19.8-15.4,3-16.6,15-33.5,11.2-7.9.5-11.4,9.7-20.6,8.6-5.1,0-9.9-.9-10.1-7.3-.2-3.8-2.4-7.1-5.7-8.6-13.9-8.4-27.1-17.7-44.3-20.3-1.1-.2-2.1-.4-3.2-5.4-1-4.8-2.8-11.6-11.6-13.1-17.3-1-49.2-61.9-65.3-36.6-5.9,13.6-5.5,18-21.2,17.3-20.7,0-21.5,1.3-26.5,21.6-3,14-11.2,30.2-8.6,45.3,17.4,37.9,28,24.5,45.8,54.8,5,10.1,9.4,20.3,18.1,28.5,4.3,7.3,7.4,15,13.4,21.7,10,25.5-53.8,33.5-60.3,70.5-3.7,10.4-8.3,14.7-13.2,19.2-27.3,22.6,1.8,44.7-27.3,42.6-3.4-8.4-4.9-16.7-22.2-25.9-3.7-1.9-8.4-1.3-11.3,1.6-18.6,17.1-4.7,29.9-26.1,38.7-22.5,8.1-19,29.2-39,28.5-9.2,0-11.1-.7-18.9-.5-17,0-35.3,4.8-54,38.5-5.2,6.6-4.8,13.7-3.5,20.5,8,40.2,18.7,86.5-9.3,118.1-9.2,5.3-10.8,15.4-12.1,23-5.2,11.3,6.6,22.4,3,32.3-1.6,24.6,24.1,26.7,37.5,32.1,13.5,23.1,12.5,45.3,42.8,46.7,10.8,1.3,17.7,2.6,22.9,11.5,20.1,31.8,44.5,67.7,37.3,106.2-4.7,8.6-4.7,17.9-4.7,25.5.3,22.7-6.4,11.1-16.3,19.1-2.3,2.1-3.4,5.2-3.1,8.3,1.8,22.2-22.6,39.4-26.8,61.6-12.4,47.1-12,57.4,5.1,104.3,5.7,17.8,7.4,19.6,22.8,32,8.2,5.2,19.6,2.7,28.1,1.6,1,0,4.5,0,15.4,10.9,17.9,19.6,31-28.6,39.1-38.9,18.7-9.4,39-15.7,58.3-22.1,15.3-13.1,10.5-23.6,9.3-35.9,1.8-25.6-3.3-62.1,24.9-58.1,21.4,0,2.4,0,3.7,0,2.6.1,5.2-.7,7.2-2.5,9.3-8.2,18.2-14.9,28-21,2.1-1.3,3.6-3.3,4.3-5.7,2.6-8.7,6.6-17.1,7.4-26.7.2-1.9,1.6-2.6,2.6-3.9,9.1-9.2,30.4-.4,28.6,12.3-1.1,5.9,3.9,11.9,9.9,11.7,5,0,3.7-2.2,10.1-2.2,8.1,0,19.4,3.7,23.2,4.9,22,5.3,36.9,9.6,49.4,24.4,1.9,2.2,4.7,3.5,7.6,3.5s.2,0,.3,0c50.4-1,44.9-35.9,63.9-38.6,7.4,1,12.3.5,19.1-6,20.2-19.3-7.9-19.2-8.9-34.6-.2-2.4-1.3-4.6-3.1-6.3-26.9-27.3-52.7-10.5-74.5-37.5h0c-11.7-16.2-17.2-37.3-38.4-46.7-6.2-4.6-11.1-8.4-14.6-14.4-3.1-12.3-7.6-16.7-12.7-20.9-6.5-3.4-5.6-13.5-12-18.3-20.7-12.4-13.1-12.1-35.6-6.9-3.4,0-1.2,0-1.8-.2-12.4-1.9-21,10.1-31.9,8.9-24.5-.3-48-35.8-68.6-51.8-19.8-17.8-42.3-2.6-48.5-38.6-10.6-31.7,45.2-141,76.2-154,19.8-2.4,18.8,1.1,35.7,8.8,4.3,1.9,8.4-.4,12.4-1.9,18.6-6.8,30.6-12.7,45.8,2.5,10,7.3,15.5,11.4,19.5,28,.5,2.2,1.8,4.2,3.7,5.6,8.9,7,15.3,16.7,27.2,21.1,10.2,4,15.6,24.3,16.8,34.2,0,4.3,1.5,11.3,10,16,7,4.5,22.6,5,27.6,10.2-4.5,5.8-13.7,2-16.1,10.6-3.7,10.2,10.8,16.2,18.2,16.7,7.7-.2,12.2-7.9,15-13.5,18.6-22.4,36.7-52.8,63.2-64.5,59.9-46.2,129.3-96.5,196.5-96.1,57.2-1.8,89.6,37.2,132.2,74.6,11.8,5.8,25.8,10,40.3,11.5,17.6,1.3,31,16.6,45.2,32.7,12.8,16.3,27.9,27.9,44.8,38.6,7.8,5.9,16.6,12.6,28.2,13.9,13.4,5.3,17.3,23.1,35.4,23.7,5.1,1.6,10,5.8,15.8,7.5,37.3,14.9,30.1,28.3,74.6,38.6,42.8,33.3,68.5,10.6,104.4,49.9,12,7.1,24.9,12.1,36.4,21.3,9,5.4,15.4,13,18.6,20.6,2.8,6.4,22.6,38.4,37.9,33.3,3.2-1.5,5.5-4.6,5.8-8.1,2.2-22.8,7.1-29.2,16.8-42.1,10.6-11.7,10.4-18.3,11.7-33.7,1.8-16.8,3.5-32.7,7.4-48.9-5.4-27.5-5.1-57.5,12-99.2,47.9-121.8,249.2-363.5,388.1-325.5,8.5,14.8,31.4,19.4,46.8,21.6,8.7,0,14.8-3.1,23.2-4,10.2,1,17.3-.5,28.2-.4,8-.1,13.7,1.1,19.1,3.4,13.1,4.5,26.3,5,37.8,5.2,8.6.3,13.4-11.1,7.1-17.1-3.8-4-12-10-13.9-14.5,4.2-12.1,10.9-23,20.9-32,.1,0,.2-.2.3-.2,8.3-7,21.9,4.1,27.9-7h0c.5-.9,1.2-2.4,1.8-3.1,10.6-.4,22.4,4.4,23,9-.4,1.9-2.9,6.2-8.7,8.6-7-.6-12.3-9.3-19.7-9.6-8.9,0-13.8,12.1-8.2,18.6,7,6.4,11.9,18,21.9,19.3,3.4,0,1-.1,6-.2,9.2-.3,18.5,1.9,26,1.9,11.3-1.1,31.4-11.2,29.6-22.4.3-2.7,2-4.1,8.8-7.5,8.5-2.6,14.9-11.7,15.5-17.5,1.2-4,1.3-4.1,2.4-4.3,2.8-.7,5.1-2.5,6.5-5,1.3-2.5,1.6-5.5.6-8.1-4.1-10.1,4-23.5,15-24.1,4.1,1.1,7.5,5.5,13.9,5.9,9.1,2.4,28.3-19.5,41.2-18.1,21.9-2.7,51.8-18.1,71.8-7.1,5.1,4.5,13.3,2.5,15.8-3.4,4.1-2.1,7.3-6,6.7-10.9,3.7-8,8.2-4.7,8.7-18.5,1.2-5.5,1.3-22.7,8.4-22.4,12-.1,12.2-21.5,23-20.3,5.6,0,1.8,0,2.8.3,6.9.9,14.2-2.4,18.8-4.5,4.1-1.9,7.3-3.3,11.4-3.2,12.3-.6,24-7.7,34.8-21.1,9.5-14.7-13.1-20.1-23.8-21.4-10.9,3-19.7,7.5-30.7,3.2-16.7-5.6-17.8,10.5-31.2,17.5-9,5.3-12.1,13.8-21.5,19.6-5,3.8-10.7,8-15,14.1-7.6,16.8-13.4,11.5-27.4,5.1-6.5-3.9-16,2.2-14.7,10-10.6-.7-20.9-11.7-33.2-9.5-.2-.7-.3-1.7-.2-2.3,5.7-4,5.2-13.5-1.1-16.7-8-4.5-15.6-3.1-23.2-4-3.6-1.6-1.9-8,3.2-7.7,3.3-.4,7.8,2.8,11.6,2.8,7.4.2,12.5-8.6,8.7-15-10.9-19.1-15.1-39.9-19.6-62.1-4.5-19.7-7.6-41.7-18.4-60.2-2.5-2.6-2.6-5-2.6-10.3.8-9.7-8.2-14.6-14.9-17.3-6.8-1.9-10.3-6.6-14.4-17.2-4.4-9.5-9.3-20.4-15.5-29.9-23.9-41.8,1-30.7,4-66.7-.6-61,55.4-84.9,59-126.4,1.2-10.3,3-21.3,17.6-36.4,9.1-10.5,19.1-25.4,22.1-41.3.7-9,8.9-15.4,7.3-23.3-2.4-9.3-7.3-18.2-7.1-27.5.4-5.2-1.5-11.2-4.6-14.7-4.5-5.3-13.7-4.2-16.6,2.2-8.1,17-17.1,29.7-29.4,41.2-5.5,6.1-8.6,13.7-11.3,20.1-3.6,8.7-6.6,15.9-14.9,20-21.7,12.1-36.9,32.9-57.9,44.7-5.1,2.6-8.4,7.3-8.9,12.7-4.8,10.6-24.3,16.6-29.8,28.4-2.8,11.2-9.9,18-20.2,25.3-7.4,5.6-15.1,11.3-20.6,20-39.8,36-162.1,6.9-192.7-13.4-10.5-7.9-8.8-23.6-21.5-33.3,0-9.4.4-35.9-6.3-39.8-6.4-5.1-16.3,0-23.2-1-109.3-20.5-221.5-53.3-320.9-122.9-7.3-3.2-3.7-18.6-15.7-24.6-32.5-16.4-56-46.1-87.1-64.5-23.9-16.2-46.5-31.6-61.8-54.1-14-22.2-32.5-40.4-50.5-57.8-17.4-16.9-33.9-32.9-46.6-52.6-5.1-8.9-10.1-18.2-17.1-25.9-6.7-7.3-8.7-18.3-14.8-26.6-8.9-9.5-19.3-18.3-17.9-30.4,1-17.4-16.3-21.9-18.9-37.5-2-6.5-4.2-14-10.7-20.4-45.1-49.4-92.3-102.5-130.3-160-13.7-22.9-53-30.9-59-58.1-2.5-10.3-9.3-15.7-13.8-18.9-15.2-7.1-7.2-34.5-29.8-33.9h0l-.7,1.7Z"/>
 </g><g>
 <path class="st0" d="M3055.8,4009c-17.1-1.9-27.4-5.5-30.5-10.4-4.4-10.9,3.7-36,15.7-40.9,7.9-1.7,14.7-7.4,17.6-15.8,2.1-8-6.2-13.8-6.5-21.6,1.3-3.9-.4-10.8,5.2-11.7,7.9-.8,7.2,16.5,17.2,16.4,11.9-1.1,22.6-25.4,11.2-35.8-1.4-1.4-1.9-3.5-1.2-5.4,4.4-7.5,14.5-.4,19.9,2.9,4,2.6,8.1,5.3,11.8,5.3,10.1-1.1,20.4-17.3,28.3-23.9,5.8-4.4,9.2-10.4,10.4-19.1,4.3-17.5,3.6-25-12.6-27.7-37.9-3.8-24.2-57.8,9.5-22.6,7.5,9.9,24,0,25-9.9,7-18.2,1.3-25.4,28.8-35.8,37.5-11.5,38-42.1,69.5-57.3,3.8-.9,6.3-4.3,6.1-8.6-.3-11.4,1.6-23.1,5.7-36,4-10.2-2.8-10.9-1.2-17.4,1.2-3.1,5.1-3.2,7.8-3.2,7.5,0,10.3,4,12.4,6.9,9.1,15.7,49.8,11,46.8-11.9-2.2-9.9,6.5-39.6,29.5-47.4,6.3-3.7,12.8-7.4,20.7-7.4,8.7,0,1.5,0,4.8.6,10.3,3.7,13.4-6.1,17-18.5,1.9-3.7.2-6.7-2.2-10.6-1.3-39.5-22.4-51,14.7-91.3,1.8-1.7,4.2-2.6,6.7-2.6,14,.9,15.5,16.8,18.5,27.4,1.8,13.5,10.8,23.3,11.9,37-1,53.6,98.6,30.4,121.9,21,11.4-2.7,14.5-16.5,26.3-20.3,17-6.1,24.2-23.5,36.6-35.5,5.9-9.1-6-12.1,11.6-26.2,5.3-3.2,6.1-8.7,10.6-11.2,11.2-3.4,14.5-13.5,20.9-22,1.2-1.7,3.4-2.1,5.3-2.7,26.6-6.8,13.9-21,27-26,17-.4,29.2-8.3,45.4-10.3,20.6-.2,42.6,12.9,45.6,27.2,3.5,21.7-22.4,19.4-24.9,33.8-3.2,11.5,16.2,18.7,17.2,30.1.7,9-8.7,18.8-11.6,27.4-2,4.9-16.8,6.1-22.9,10-1.2.5-2.8.5-4,0-8.4-3.6-17.7-5.4-27.8-5.4-30.7,0-65.2,17.6-82,41.8-1.1,2-4.2,2.5-5.8,2-4.5.9-8.6,5.5-14.1,5.2-3.7,0-.2,0-.3,0-15.8,3.7-16.9,14.4-37.9,14.4-15.3.3-22.2,8.2-32,18.1-16.8,4-21.4,21.6-37.9,25.9-27.9,13.7-54,48.3-64.2,63-5.8,11.7-14,17.3-21.2,22.2-5.7,3.9-11.2,7.6-15.6,14.2-.8,1.8-4.2,2.4-5.1,2.2-21.3-6.4-39.4,17.2-58.1,3.1-14.5-8.2-9.1-14.5-14.3-23.7-14.9-9.7-37.3,10.2-41.2,25.4-4.2,14.9,14.8,13.2,9.9,22.5-6.8,10.1-13.6,21.1-18,32.9-10.6,26.3-33.4,17.6-38.9,33.7-.9,3.8-3.4,6.4-7,7.4-16.9,4.1-31.2,14-43.7,28.5-22.6,16.5-18.7,23.1-34.8,41.8-8.6,9.6-6.5,25.4-17.3,34.4-9.6,10.2-24.3,17.4-37.5,18.3-5.1.5-9.2-2.9-13.5-3.6-11.9-.3-30,24.2-34.2,32-8.7,13.8-12.8,44.3-31.4,45.4l.4-.7Z"/>
 <path d="M3780.6,3384.1c18.2,0,37.7,11.3,40.2,23.2,2.5,18.4-23.9,15.1-24.9,32.5-3,15,16,21.7,17.1,30.7.4,7.1-8.3,16.4-11.4,25.5-6.5,1.7-13.3,4.1-20.1,7-40-17.2-93.4,5.6-115.9,38.1-5.7-1.5-10.5,4.9-15.8,4.9-4.8,0-.3,0-.5,0-15.9,2.2-16.5,14.1-37.7,14.4-17.4.5-25.3,9.2-35.5,19.6-16.7,3-21.3,21.8-35.9,24.7-25.1,12.1-50.3,41.2-66.9,65.2-9.6,19.7-25.6,19.8-36.6,36.2-22.4-6.4-45.7,17-56.2,3.8-14-7.6-6.5-14.3-13.4-23-24.5-18.9-71.9,33.6-39.1,48.6-6.2,9.3-13.7,20.8-18.3,33.6-6.3,13.9-15.2,17.2-23,20.1-6.7,2.5-14.2,5.3-16.2,14.6-.8,2.6-2.1,3.3-3.5,3.7-17.6,4.5-32.4,14.1-45.4,29.3-23.2,17-19,22.7-35.5,42.3-9.5,9.8-7.2,25.8-17.2,34.2-8.4,8.9-22.2,16.3-35.1,16.9-4.4,0-8.2-3.8-12.8-3.6-15.2,0-34.7,27.9-38.3,34.6-7.8,11.3-12.7,42-26.2,42-13.5,0-.6,0-.9,0v.8c-9.1-1.2-28.6-4.2-27-11.2,1.7-11.1,4-25.9,14.2-30.5,9-2,17-9.2,20.3-19,2.1-9.3-3.5-14.8-6.4-22,.5-2.5,1-5.1,1.1-7.7,13.2,40.5,52.8-5,31.1-28.1,8.5-.2,17,11.4,27,11.4,9.9,0,6.3-1.1,9.7-4,9-5.6,14.6-14.4,22.1-21.2,6.7-5.1,10.4-12,11.9-21.5,13.1-50-33.5-20.3-35.7-51.5,4.1-12.8,15.3-5.5,24,3.3,10,12.6,31.1,2.6,33.5-11.3,7.6-18.2-.1-23,26-33,40.3-13.4,41.8-45.1,69.8-57.5,5.7-1.7,9.3-7.1,9.1-13.4-.3-10.8,1.5-22,5.5-34.3,2.8-8.3.9-13.5-1.4-16.9,18-2.3,2.4,14.2,42.2,16.7,47.7-17.9,5.9-27.2,41.1-64.5,10-3.4,18.7-12.3,29.2-12.3s2.1,0,3.2.3c2.1.7,4,1,5.7,1,12.1,0,15.5-15.8,18.3-25.3,1.5-5.1-1.5-8.4-3.2-11.8-.3-40.2-22-45.6,14-85.8,4.5-3.3,10.7,2.3,12.2,6.5,3.3,10.9,5.8,22.2,9.1,33.1,4.1,5.7,6.4,11.6,7.1,19.1,3.6,60.8,96.8,35.2,127.9,25.6,13.1-2.6,16.1-16.7,27-20.5,18.5-6.7,25.7-24.2,38.4-36.6,4.2-3.8,3.5-8.5,3-11.6-2.2-10.4,13.3-15,17.2-24.6,13.2-4.1,16.7-14.8,23.4-23.8,10.8-3.8,23.7-6.7,26.3-23.3,0-.7,1.6-2.4,2.2-3.4,18.2-.4,31.1-8.7,45.8-10.3M3780.6,3374.1c-16.6,1.2-29.3,10.1-46,10.3-3.7,0-6.7,2.2-8.6,5.1-7.2,11.8-1,15.2-19.9,21-12.5,2.8-14.3,22.5-26.1,24.8-6.4,2.1-6.2,8.2-12.3,12.2-6.5,4.9-14.5,14.2-11.5,26.1-12.1,11.4-19.6,29.2-35.3,34.7-7.5,2.8-11.8,8-15.8,12.7-10.5,13.3-56.4,19.8-82.9,20.8-37.4-.5-42-17-42.6-30.4-.8-8.6-3.7-15.7-8-22.5-3.1-10.6-5.5-21.3-8.7-31.8-2.9-10.3-20.3-19.4-27.8-10.8-13.2,13.9-21.1,26.8-23.5,38-2.3,10.6-.2,19.5,1.9,28.8,1.8,7.4,3.7,16.1,3.7,27.2,0,3.2,2.3,6.2,3.6,8.8-1.9,5.9-4.9,21.3-11.3,17.5-14.8-4.1-27,7.1-38.9,12-20.7,14.4-23.6,39.3-22.6,47.1,0,4.9,0,6.3-1,7.6-8.1,8.5-20.1,11.3-32.3,5.4-7.3-4.8-6.4-12.7-20.8-13.1-10.1,0-2.9,0-4.6.3-3.4.5-6.4,2.7-7.8,5.8-3.6,8.1,4.1,8.2,1,17.8-4.3,13.4-6.3,25.8-6,37.8.2,2.1-1.1,3.6-3.2,3.9-32.2,15-33.1,45.9-69.3,57.4-17.1,6.4-25.7,13-28.3,27.8-2.2,7.8-4,21.4-15.5,21.7-5,0-3.5-1-4.2-1.9-12.7-16.9-39.2-20.7-41.8,3.6.4,15.9,13.6,24.7,27.1,26.7,4.5,1,8.8,2,9.9,3.9.6,1,2.2,5.1-1.1,17.6-1,7.5-3.7,12.9-8.9,16.6-8.3,7.3-15.1,18.5-25,22.6-8.2-2-16.5-11.9-26.7-11.4-6.9,0-.5,0-.7,0-8.5.1-13.1,11.4-6.6,17.2,4.5,4.4,3.8,11.7,1.7,17-6.4,12.1-11.3,15-16.4.4-4.1-10.4-18.8-7.6-19.4,3.1-4,14.2,5.4,17.1,5.7,27.4-2.5,6.9-8.3,11.2-14.7,12.6-15.5,6.6-24.2,36.3-17.6,48.2,4.4,6.4,14.1,10,33.4,12.5,17,0,24.6-17.5,30.3-33,6.1-15.6,7.5-17.6,20.2-32.9,7.9-8.5,13.6-11.6,16.2-11.6s0,0,.1,0c17.3,9.4,39.9-1.6,54.6-15.9,11.3-9.3,9.9-24.7,17.4-34.4,16.5-18.5,12.3-25.2,34.3-41.2,12.2-13.8,25.8-24.1,42.3-27.7,14.1-4.5,5.4-15,20.4-18.5,27.9-7.4,30.1-36.8,46.1-57.4,8-14.4-12.6-13.5-9.2-24.2,3-11.9,20.9-28.3,32.7-23,2.7,9,1.7,16.9,15.2,24.4,5,3.8,10.3,5.6,16,5.6,15.1-.7,27.6-11.8,43.9-7.9,9.8,1.9,13.3-12,24.3-17.2,7.6-5.2,16.3-11.1,22.7-23.8,10-14.4,35.1-47.6,61.6-60.8,15.5-2.9,21.5-21.2,34.3-24.4,2-.4,3.9-1.4,5.4-2.8,9.3-9.5,15.5-16.4,28.6-16.6,21.4,0,23.9-10.1,38.1-14.4,5,0,8.8-2.2,11.7-3.8,4.8-2.5,8.6,0,12.1-5.4,15.9-23,48.7-39.7,77.9-39.7,34.1,1,15.4,12.3,52.4-1.5,7.3-1.9,7.5-10,11.7-15.7,3.8-6.5,7.7-13.2,7.1-20.7,0-12-19.6-19.1-17.1-29,.1-2.4,1.5-3.7,8-7.3,40.3-21.2,2.4-60.2-33.2-59h0l-.5-.3Z"/>
 </g><g>
 <path class="st0" d="M6399.3,758.1c-2.7.1-4.9-2.2-5-4.9-1.6-16.9-23.7-25.9-40.4-24.5-3.3,1.5-24.4,6.4-27,1.2-2.8-4.6-6.3-10.3-2.8-14.3,6.5-8.7,9.2-18.9,11.9-28.7,6.3-14.1,2.3-30.3,4.4-45.5.7-9.4-3.8-13.4-8.5-17.6-26.5-22.8-11.8-56.2,25.5-41.8h.1c7.3,4.6,18.1,12.6,24.8,4,9.7-9,10-15.9,10.4-27.3-.1-1.6.7-3.2,2-4.2,10.4-8,16.9-8.3,23.8-8.6,7.6.4,19.3-4.8,27.2-4.8,19.1-1.2,12.9-8,22.4-12.9,5.7.2,10.5,9.3,15.9,8.6,23.4-13.3,62.3-50.6,63.7-89.4,10-16.9,20.1-16,21.2-42.4,2.7-12.6,7.1-24.2,7.5-37.3h0c.8-11.6,12.8-14.4,16.6-25.2,13.6-20.5,34.2-35.5,52.5-51.5,1-1.1,3.5-1.5,4.7-1,11.2,3.3,18,10.4,30.8,10.4,8.1,0,.4,0,.6,0,5-.3,10.7.2,10.3,5h0c4.8,8.4-1.4,24.1-4.3,28.7,0,0,0,.2-.1.2-4.6,5.9,4,12-.4,17.9-11.5,14.6,8.8,28.2,11.7,43.4.3,1.2,0,2.4-.5,3.4-18.7,30.6,10.8,44.8-10.6,62.2h-.1c-3.4,3.7-8.3-.1-12.1-.6-51.9,19.2-16.8,52.7-44,70.1-11.3,10-10.4,28.2-21.9,39-8.8,9.3-14.4,46.6-29.4,45.3-25.3-.5-20.1,27.4-39.6,36.8-5.7,1.4-10.9-4.3-17.3-3.1-8,0-17.5,3.3-26.3,5.3-4.3-.3-9-1.7-13.2-1.6-12.2.5-19,16.7-31,20.6-49.5,22.9-39.9,84.4-53.7,84.9v.2Z"/>
 <path d="M6648.8,294.9c10.2,2.9,17.7,10.6,32.1,10.6s.5,0,.7,0c11,0,1.1,0,1.6,0,10.2.9,3.6,20.3.1,26.2-2.7,4-3,8.8-.9,13.1,1.4,2.9,1.2,3.7.4,5-13.1,19.2,7.6,31.2,11.1,47.1-19.5,36.6,9,47.9-9.4,60.8-.1,0-.2.2-.3.3-3.2-.2-7.1-3.2-10.6-1.9-33.9,13.1-34.7,33.7-35.3,48.8-.4,11.5-1.1,17.7-9.5,21.8-12.5,9.9-11.5,27.9-22.2,39.1-9,6.7-14.9,44.3-26.3,44.3-25.5-2-21.9,23-41.7,37.2-13.7-7.1-26.7-2.1-41.3,1.7-9.7-1.6-19.7-4.1-27.4,4.7-5.9,5.3-11.9,11.8-18.8,14.8-26.8,10.6-47.5,50-48.9,78.8,0,1.3-1.4,3.8-2.9,5.8-1.6-18.4-22.2-29.1-40-29.4-12.6,0-6.1.4-8.7,1.1-6.4,1.5-12.9,2.2-19.4,2.6-1.9-3.2-4.5-7.2-3.2-8.5,7.3-9.7,10.2-20.7,13.1-31.3,6.5-14.7,2.2-30.7,4.4-45.6.9-11.9-5-17.3-10.3-22-12.2-8.1-20.3-37.8,6.7-36,15.2-1.3,19.1,10.4,32.6,10.9,6.4,0,8.3-1.8,11.6-5.3,11.2-10.6,11.4-19.1,11.8-30.9,14.9-11.5,19.9-4.9,35.4-9.9,13.1-5.3,26.4,1.5,35.5-15.5,3.3,4.3,16.2,12.8,20.3,6.7,23.4-15.7,62.4-52.4,63.5-92.4,14.3-15.3,19.1-17.9,21.3-42.1,2.9-12.2,7-23.9,7.5-37.5.2-3.2,1.5-5.8,3.9-7.6,5.7-4.2,9-9.8,12.1-15.3,13.2-19.9,34-34.9,51.4-50.2M6648.8,284.9c-7.5.6-11.8,8-17.9,12.1-15,12.6-30.6,25.7-41.8,42.5-3,5.1-5.6,9.9-9.7,12.8h0c-4.7,3.6-7.6,9-7.9,15.2-.4,12.9-5,24.5-7.4,37-1.1,20.1-6.8,23.6-18.7,36.1-5.1,39.1-36,75-61.8,91-3.8-.4-9.2-9.2-14.7-8.5-12.1.5-6.2,13-23.5,12.9-7.6-.2-19,5.2-26.9,4.8-5.7-.3-28.8,3.7-30.5,17.6.1,12-2.1,18.2-11.1,26-5.1,1.4-11.6-3.6-16.7-7-41.8-17-62.9,21.7-31.2,49.9,11.2,7.4,4.6,20.6,6,31.5.3,9.8,0,18.4-3.6,26.5-2.7,9.8-5.2,19.1-11.1,27-6,5.2.7,25.2,11.1,24.8,7.2.2,18.8-2.8,28-3.5,37.6,3.5,23.7,23.8,37,28.9,8.7,3.4,15.9-8.5,16-14.9.6-23.7,20.2-61.6,42.6-69.8,7.2-2.9,13.1-8.6,18.3-13.4,9.5-11.9,14.8-4.6,26.9-5.8,8-2.2,16.9-5,23.8-5,7.2-.7,12.6,6.1,19.4,2.5,19.5-8.3,16-36.5,36.3-36.1,22.8-1.5,23.2-33.2,33.2-46.4,12.2-10.5,11.8-28.5,21.6-38.6,30.4-20.6-5.2-51.4,41.4-69.1,11.2,6.8,24-5.5,25.1-16.1.7-5.1-.6-9.9-1.9-14.5-2.4-8.7-4.9-17.7,3.8-33.9,1.1-2.1,1.5-4.6.9-6.9-1.7-13.6-21.7-28.2-12.6-39.3,0-.1.2-.3.2-.4,5.6-8.5-1.6-12.5.2-17.8,2.7-4.5,10.7-21.7,5.1-33.3-1.1-7.6-8.7-9.2-15.8-8.5-12.5.2-20.1-9-32.1-10.6h0v.3ZM6684.8,467.7h0Z"/>
 </g><g>
 <path class="st0" d="M2506.7,4397.2c-1.3,0-2.6-.5-3.6-1.5h0c-12.1-19.6-51.4,22.1-48.1-15.7,2.9-11.4,0-19.5-3.1-28-1.5-5.5-5.5-12.3-3.2-18.1,7.8-7.9,13.6-2.5,18.9-18.5,6.1-20.9,21-17.7,32.4-30.6,6.3-9.1,18.5-9.1,22.2-18.3,1.7-3.9,3.7-7.3,8-9.3,9.7-6.5,17.6-13,24-19.7,2.6-5.3,4.9-8.7,12.9-11.7,18.3-6.5,16-19.1,15-34.2.5-4.8,5.1-8,7.3-12.2,6.6-9.4,13.3-19.1,22.2-26.8,7-6.1,12.2-13.5,14.5-21.5,6.5-17.8,18.9-28.9,30.9-39.6,17.5-13.8,29.6-30.1,31.2-57.2,9.6-11.8,20.3-25.8,24.6-42.6,2.5-10.5,21.4-29.7,32.4-30,7.4-.7,10.3,5.2,15.3,9,6.9,6.5,14.8,10.3,19.3,20.5,3.3,6.3,3.9,6.5,5.5,7.2,9.8,5.4,25.6,15.8,41.8,15.9,9.8,0,2.1-.2,2.2-.2,22-2.1,45.2,1.4,65.4-8.3,3.8-2,8.3,2.1,6.8,6.1-4.2,12.8-10.1,37.8-28.3,34.1-5.1-3.9-10.3-8.6-16.7-7.9-.3.2-.6.3-1,.4-32.3,11.5-18.4,22.5-36.1,34.6-22.6,23.1-19.3,21.5-52.1,22.9-81.5.9-43.8,42.4-82,53.7-5.9,1.6-9.8,4.2-13.8,8-10.9,5.4-21.9,11.9-24.9,24-4.8,14.7-17.5,26.5-17,42.4,0,5.2-5.1,5.7-8.9,4.6-10.2,0-16.2,20.4-19.4,31.4-1,31.6-31.7,33.1-57.7,36.9-26.1,31.6-27.9,13.5-29.5,65.2-1.2,10.4,1.3,34.3-7.7,34.9h.3Z"/>
 <path d="M2745.3,3966.8c5.4,0,2.3.2,3.5.7,2.9,1.7,5.5,4.2,8.3,6.8,6.4,6.2,14.4,10,18.3,19.1,6.7,12.8,5.8,6.6,15.5,13.7,5.2,4.8,25.9,12.1,36.4,12.1,17.9-2.3,47,1.8,69.7-8.9-4.1,12.3-7.2,28.5-20.5,31.7-5.1-3.8-10.4-8.9-17.9-9-6.6,0-3,.2-4.5.7-8.4,2.6-15.9,7.1-22.3,13.4-8.8,8.7-4,15.3-15.1,21.9-7.2,6.2-12.6,13.1-19.8,19.1-35.3,7.2-78.2-6.2-94.9,35.7-4.6,13.8-3.3,16.6-18,21.1-4.9,1.6-10.4,3.5-14.6,8.3-12,6-23.8,13.1-27.4,26.9-5.1,15-17.9,26.9-17.2,44.2-19-5.1-25.7,27.8-29.7,40,.3,5-.8,9.4-4.3,13-9.4,11.4-32.9,12-49.2,15.1-7.5,6.2-12.1,16.3-20.9,21-15.7,8.4-8.5,59.7-14.1,78.7-10.5-14.6-30.4-2-43.8-.2-2.6-.5-2.7-4.7-2.9-10.7,5-19.5-5.3-30.9-7-44.6.2-.3.8-1.2,3.4-2.2,10.2-2.8,13.3-10.5,16-17.4,5.3-18.9,20.2-15.4,31.5-29,7.6-9.6,19.1-8.4,23.1-19.8,1.8-3.7,2.9-5.4,5.7-6.5,10.5-7,18.9-13.9,25.8-21.2,2.4-4.8,3.5-7.2,10.5-10,21.9-8.1,19.2-23.5,18.2-39.2,8.9-12,16.6-25.2,27.8-34.8,7.8-6.7,13.3-14.9,16-23.6,14.4-39.6,61.4-44.6,61.3-95.3,10.7-13.1,21.2-27.4,25.6-44.6,1.9-8.5,19.3-25.7,27.5-26.2M2897,4010.3h0M2506.6,4392.1h0M2745.3,3956.8c-15.1,1.8-31.5,18-37.2,33.8-4.1,15.8-14.3,29.3-23.6,40.7-1.5,1.8-2.3,4-2.3,6.4-.5,46.1-46.9,50.8-60.7,91.8-2.3,7.2-6.7,14-13.2,19.5-9.4,8.1-16.4,18.1-23.1,27.7-18.1,17.6,4.3,36-19.8,44.6-9.1,3.3-12.3,7.8-15.3,13.5-6,6.2-13.3,12.2-22.4,18.2-5.5,2.6-7.9,6.8-9.9,11-3.2,8-15.8,8.5-21.8,17.9-11.8,12.2-26.7,9.8-33.2,32.1-7.1,21.2-29,3.9-15.5,39.9,2.9,8.2,5.5,15.2,2.9,25.1-1.9,11.2,3.2,24.8,14.2,23,10-.5,28.8-12.8,35-2.6h0c21.4,13.3,18.9-21.7,19.8-36.7.2-10.8.9-34.9,6.1-40.3,9.6-5.1,14.1-13.6,20.8-20.5,24-4.1,57.6-5.2,59-36.1,2.4-7.9,4.7-17.1,8.7-24.6,1.2-2.2,4.2-7.3,7-7.3,2.8,0,.8,0,1.3.2,3,.7,6.4,0,8.8-1.9,2.5-2,3.9-5,3.7-8.2-.3-14.6,12.8-26.9,16.9-41.3,2.4-9,9.9-14.3,22.2-20.5,4.4-3.2,6.7-6.3,13.2-7.8,15.1-3.4,21.2-13.4,24.3-27.2,11.7-36.5,61.6-19.8,91.9-31.5,7.2-6,12.5-12.7,19.3-18.7,12.7-7.9,9.5-14.9,16.2-22.9,5.4-5.3,11.8-9.1,18.9-11.1,3.9-.6,8.4,3.8,12.7,7,21.5,9.8,34.2-25.7,36.6-39.7.2-7.3-8.1-12.3-14.4-9-14,6.4-29.2,6.7-45.4,6.9-6.5,0-13.3,0-19.9.9-8.5,0-26.5-6.8-29.6-9.5-4.1-3.2-8.8-5.6-10.7-6-5.3-11.8-14.2-19.7-23-26.6-5.6-4.8-9.8-11.3-18.8-10.4h0l.3.2Z"/>
 </g><g>
 <path class="st0" d="M4066.4,3367.4c-7.7,0-18.6-1.5-26-.9-4.9.4-7.5-6.6-3-9.2,13.3-8.4,15.9-24,19.9-38.4,20.3-16.3,32.2-29,38.6-53.3,1.8-6.2,4.6-10.4,9.1-13.3,6.7-6.2,11.9-14.5,17-22.6,6.8-10.8,8.5-17,23.2-16.1,13.1,0,24.5,4.3,34-7.2,38.9-34.8,12.8-18.1,35.3-52.7,9.3-28.6,31-24.7,43.3-45.1,2.7-15.1,16.5-22.2,26.4-31.4.9-.9,2.2-1.4,3.5-1.4s.2,0,.4,0c16.7,1.9,42.7-1.3,47.6-10.8,8-10.8-2.8-22.6.8-28.9,13.6-17.3,22.4-18.5,30.2-19.7,4.4-.6,8.2-1.2,13.3-5.1,5.4-5.7,12.8-6.8,18.7-10.9,3.6-1.7,9.2-.7,12.9-.5,8.3-2,17,1.4,22.9,5.8,11.3,9.1,17.2,2.9,28.8,1.4,4.9-.2,6.9,7.1,2.4,9.3-16.9,9.6-28.7,28.9-46.9,37.6-12,9.5-25.3,21.1-35.2,34.8-12.7,11.9-26.7,21.9-37.5,35.4-15.6,13.9-5.3,35.5-20.5,46.9-8,2-5.3,13.1-11.6,18.1-6.2,3.1-11.5,6.8-16.7,11.4h0c-5.8,5.3-13.3,9.6-18.2,15.4-16.1,24.2-41.3.5-51.9,27.4-1.9,4.3-6.3,6.2-9.8,7.5-3.7,1.3-6.5,2.9-8.4,6.3-8,9.7-15.7,17.4-24.4,24.2-24.6,23.4-44.4,62.6-78.7,71.2-16.6,5.2-24.7,16.9-39.4,15.1h0v-.3Z"/>
 <path d="M4417.5,3004.2c11,0,17.4,11.3,28.9,11.5,5.9,0,3.9-.3,5.9-1,3.9-1.2,7.5-2.3,11-2.9-17.5,9.6-29.3,29.2-47.2,37.7-12.1,9.7-25.8,21.2-36,35.4-12.6,11.9-26.6,21.6-37.6,35.6-17.3,17.4-8.3,39.4-19.5,46.1-10.1,3.3-7.3,14.1-12.3,18.5-6.6,2.9-11.7,7.2-16.7,11.4-6.3,5.5-13.8,9.6-19,16.1-15.8,22.3-41-2-52.6,28.6-3.3,5.5-12.6,3.8-17.4,12.4-8.3,10-15.9,17.4-23.8,23.6-24.3,22.9-44,61.8-76.7,70.2-13.1,2.8-21.6,15-35.2,15s-1.9,0-2.9-.2v.2c-5.9,0-22.8-1.5-26.4-.9,15.2-9.6,17.8-26.4,22-41.3,22.5-14.6,31-29.6,38.6-53.3,1.5-5.4,3.7-8.5,7.4-10.8,11-9.9,17.8-24.5,26.4-36.3,16.8-5,34.4,6.3,48-9.8,40.6-36.3,14.5-21.2,36.5-54.2,10.3-29.8,34-24.6,43.7-45.8,1.9-13.4,15.5-20.3,25-29.3,28.3,2.1,67.4-1.9,52.7-41.5,20.5-26.1,27.1-11.8,43-24.2,4.2-4.9,11.8-5.9,17.2-10,1.1-.5,2.4-.6,3.8-.6,2.4,0,5,.5,7.2.5,3.3,0,3.3-.7,6-.6M4463.3,3011.8h0M4417.5,2994.2c-1.9,0-3.9.2-5.9.7-5.5-.4-12.5-1.4-17.1,2.1-5.6,3.7-12.4,4.8-17.9,10.6-17.2,8.6-25.9,1.2-44.1,25.4-8.8,13.5,22.2,36.6-33.2,38.1-22.8,0-12-1.4-25.7,8.6-8,6.5-18,14.5-20.5,27.3-12.9,17.9-33.4,15.7-43.1,44.4-21.8,33.1,3.1,18.1-34.1,51.3-3.8,4.7-7.4,6.7-14.6,6.6-23.4-.6-31.7-4.9-43.4,17.8-5.1,8-9.8,15.6-15.9,21.3-19.9,17.6-9,41.5-45.3,63.6-10.2,10.6-5.4,31.5-21.9,41.3-8.4,4.9-4.3,18.8,5.4,18.5,3.7-.8,18,1,26.3.9,16.9,1.7,26.9-11.4,40.5-15.2,35.8-9,55.7-48,80.8-72.3,9.1-7.3,18.1-15.8,26-26.3.9-1.5,2.1-2.1,5.3-3.4,3.9-1.4,10.3-4.4,12.6-10.3,7.4-21.9,33.9-.5,51.2-26.1,4.6-5.4,11.9-9.6,17.5-14.6h0c8.5-8.3,21.6-10.7,23.3-23.5,1.7-5.8,1.3-3.7,4.3-5.4,18-12,6.5-34.5,22.3-48.6,10.3-13.1,24.4-22.8,36.6-34.5,9.7-13.2,22.5-24.8,34.5-34.1,18.1-8.8,30-27.7,46.5-37.4,3.3-1.7,5.4-4.9,5.4-8.8-2-16.1-17.1-7.7-26.8-6-9.4-1.6-16.6-12.1-29-11.5h0v-.5Z"/>
 </g><g>
 <path class="st0" d="M6125.8,1215.9c-2.9-.2-8.4-3.9-9.9-3.1-9.5.2-17.6-4.5-24.5-8.6-5.5-5.9-2.5-18.6-3.7-26.2.9-7.2-2.6-16.3.4-22.7,13.9-14,3.6-22.4,21.7-41.7,14.2-14.8,8.6-23.8,18.2-39.6,3-4.6,5-9.7,7.1-15.1,2.4-8.9,10.1-17.3,10.8-26.6,1.1-8.1,2.9-14.4,15.3-21.7,5.6-4.1,3.2-13.5,6.4-19.3,3.3-3.8,11.2-3.2,13.9,1.9,3.1,6.3,8.5,9.5,15.6,12.3,7.5,4.5.9,23.5,0,30.5-1.9,4.8-.7,11.6-4.7,15.1-71.6,38.1,23,128.5-42.1,151.3-6.3,1.1-12.1,2-20.9,11.6-1,1.1-2.3,1.6-3.7,1.6v.3Z"/>
 <path d="M6173.6,994c1.5,0,3.1.5,3.4,1.3,4,8.2,11,12,18.3,14.9,1.1,12.5-3.5,24.4-5.4,36.8-74.8,45.7,17.3,133.6-40.3,150.7-6.5,1.1-13.8,2.3-23.8,13.2-3.3-1.5-6.9-3.5-10.8-3.1-7.6-.1-13.9-3.7-21.1-7.9-1.7-13.5-.7-27.3-2.1-41.1,4.5-4.9,9.4-10.5,9.8-19.4,2-17.4,22.8-28.4,24.8-46.9.4-5,2.1-9.7,5.9-15.8,6.6-10.4,8.8-23,15.7-32.9,5.8-12.3-1.5-18.9,16.1-29.1,6.1-4.8,6.4-13,7.2-19.3-.2-1.1,1-1.5,2.3-1.5M6173.6,984c-15.2,0-10.4,14.8-15.3,22.7-17.9,10.5-15.3,19.3-19,32.4-6.9,10.2-9.2,22.4-15.4,32.4h0c-9.4,14.6-5.1,26.3-18,39.1-6,7.8-13.4,16.9-14.2,28.5.8,7.8-10.5,12.4-9.8,20.8,2.6,11.7-3.1,42.1,6.9,48.7,7.4,4.4,15.8,9.3,26.5,9.3,1.5-.1,2.7.5,4.5,1.3,13.5,7.2,16.6-11.5,31.4-11.6,34-8.3,31-41.4,23.4-69.5-21-85.7,21.7-61.1,27.5-100.8,1.3-10.1,9.3-29.9-3.1-36.3-13.7-3.2-11.5-16.9-25.4-16.9h0Z"/>
 </g><g>
 <path class="st0" d="M6762.7,369.7c-20.1,0-27.2-17.1-48.9-27.9-3.9-2.2-6.6-9.8-3.9-14.7,5.3-11.2,8.1-21.6,8.4-32.7,0-1.8,1-1.5,1.5-1.6,33.9,2.5,48-46.7,78-50.5,7.1.5,15.9-6.4,22.4-7.3,4.8,7.7,5.2,16.9,5.7,26.7-.1,10.1,3.1,21.4,2.4,31.2-3,8.3-7.7,16.1-12.7,24.3-6.6,9.3-10.6,22-18,30.6-3.8,4.4-7.6,8.8-8.5,18.6-12.1,2.2-20.4,3.2-26.6,3.2h.2Z"/>
 <path d="M6817.7,241.1c3.9,9.1,2.8,22.1,4.1,32.8.4,5.8,2.2,12.7,1.7,18-5.8,15.4-17.9,29.8-24.4,45.7-5.2,9.2-12,11.4-14.4,24.7-39.9,8.6-35.1-5.8-68.6-24.6-1.8-.8-3.4-5.4-2.2-8,5.2-10.7,8.2-21.1,9-31.7,33,0,47-44.5,74.6-50.5,7.4,0,13.7-3.6,20.1-6.4M6723.2,294.6h0M6820.2,230.2c-6.2,0-15.5,7.2-22.2,7.2-23.3-3.2-47,50.5-76.6,50.5s-.9,0-1.3,0c-4-.3-6.9,2.4-7,6.5-.4,10.9-3.4,21-8.1,30.9-3.5,7.1-.2,17.5,6.2,21,30.5,17.7,30.3,28.5,51.5,28.5s17-1.3,31.4-4c0-16.7,8-17,14.1-28.9,6.9-16.4,19.3-31,25.1-47.5,1.1-6.9-1-14.3-1.5-21.4-2.3-12.3,1.8-37.2-11.6-42.7h0Z"/>
 </g><g>
 <path class="st0" d="M4971.2,2681.9c-10.6.1-21.1-12.9-20.3-23.2-.4-4.3-4.5-10.1-4.5-13.9,29.4-11.7,57,15.5,63.2-17.6,8.2-11.3,13.3-21.5,16.2-32.2,1.4-3.9,6.4-6.4,12.1-9.2,6.6-3.3,14-7,18.6-14.2,2.1-2.3,5.6-3.8,9.3-5.3,6.4-2.6,14.3-5.9,16.8-15.2,3-12.3,14.4-20.3,19.8-31.9,5.8-15,15.3-28.4,24.1-42.2-.4,10.2,13.5,22,19.4,8.3,0-10.8,13.4-6.8,14.2-15.4,7.1,25-54.4,35.5-49.4,68.9,0,26.5-15.7,16.1-27.4,30.8-6.7,11.3-15.9,20.9-20.9,33.6-3,7-13.3,10.7-18.7,15.9-6.9,5.2-13.4,10.2-21.1,12.8-25.5,6.4-26.5,43.9-51.7,50h.3Z"/>
 <path d="M5125.3,2488.3c2,3.7,5.4,6.7,9.5,7.7-44,26.6-18.7,47.8-35.8,58.5-6.8,3.5-14.3,3.8-19.7,12.5h0c-6.8,11.5-16,21.1-21.2,34.3-2.8,5.2-12.7,9.4-17.2,13.7-8.6,7.4-17.1,11.1-26.8,15v-.4c8.3-11.5,13.5-22,16.5-33.1,7.8-7.8,22.8-9.9,29.9-21.8,1.4-1.4,4.4-2.6,7.3-3.8,6.6-2.7,16.9-7,19.7-18.8,2.9-11.3,14.4-19.5,19.4-30.9,4.7-11.5,11.1-22,18.2-33M4970.2,2646.9c9.5-.7,16.8,3.3,25.2,3.2-2.9,7-8,12.7-13.6,18.9-5.6,7.8-12,11.3-20.3,3.2-7.3-6.8-4.6-16.1-8.9-23.8,5.4-.7,11.5-1.4,17.6-1.4M5136.4,2458.6c-9.8,1.2-11.5,14.2-17.2,20.8-7.8,12.1-15.7,24.1-21,37.6-5.6,11.7-17,19.7-20.1,32.9-3.1,11.8-18.4,10.7-25.3,18.8-7.8,12.7-27.7,13.4-31.5,25-3,11.4-8.6,21.3-15.5,30.8-2.6,6.7-3,15.1-12.3,15.8-3.9,0-1.4,0-2-.4-14.9-4.5-29.5-3-45-.7-10.5,4-1.5,13.4-.5,20.3-.1,13.9,12.6,27.5,25.3,27.5s9.4-1.8,13.4-6.2c7.1-8.2,15-15.6,19.5-25.8,4-8.9,10.8-15.3,20.3-18.4,13.2-4.5,22.8-14.9,34.5-22.1,3.7-2.4,6.7-5.3,8.4-9.5,4.8-12.2,14-21.7,20.5-32.9,3.1-5.2,9.9-5.6,14.8-8.4,21.4-8.4,6.5-34.2,21.3-46.5,8.4-7.9,18.2-14,27.5-20.8,10.4-6.5,25.6-32,5.5-32s-2.2,0-3.4.2c-1.1-1.8,1.5,4.4,1.8,5.4-18.9,6.3-9.6,13.9-17.3,16.4-1.2,0-2.7-.7-3.4-2-11.1-16.1,14.7-23.3,1.7-25.8h0Z"/>
 </g><g>
 <path class="st0" d="M2942.8,4401.9c-8.6-12.7-14.7-14.6-21.4-18.7-.7-1.8,7.1-9.8,5.1-14.5-6.5-15-9.3-14,6.9-18.8,10.3-3.6,21.5-6.3,32.3-7,1.6-.1,3-.9,3.8-2.2,5.7-8.6,19.7-22,26.7-22,1.7.1,6.4.6,13.2-3.7,3.2-1.5,5-3.8,7.4-.7,8.3,6.2,13.2,16.3,22.7,21.6-.7,1.9-2.6,7.2-3,8.2-9.9,2.8-28.9-1.3-28,13.7-9.6-.7-16.6,6.8-16,16.2-10.6,0-23.5,14-27.8,9.6-3.5-2.3-10.1-.4-11.2,5.1-.6,5.8-4.8,12.1-10.7,13.3h0Z"/>
 <path d="M3015,4317.7h0M3013.8,4318.3c7.1,5.5,11.8,14,19.6,19.7-.2.6-.5,1.1-.5,1.7-10.5,2.1-26.4,0-28.9,13.5-8.6,1.3-15,8.2-16,16.7-8.8,2.1-13.8,6.4-20.3,9.6-6.4-4.1-17.2-1-18.9,8.8-.3,2.8-1.8,5.8-4,7.5-6.3-8.3-12.5-12.2-16.7-14.6,7-9.3,3.6-14.3-.7-23.7,12.6-4.4,25.8-8.7,39.1-9.5,3.1-.2,5.9-1.9,7.6-4.5,1.7-4.1,18.5-20.2,22.4-19.8,7.1.8,12.9-2.7,17.6-5.4M3014.4,4307.8c-5.2,0-10,6-16.1,6-7.5-2.4-26.3,13.3-32.9,24.2-11.2.8-22.7,3.3-33.4,7.3-18.8,5.7-19,6.4-10,25.7-14.5,24.6,1.6,8.8,18.2,36.3,9.7.2,17.3-8.8,18.2-18.1,0-.5,2.1-1.5,3-1.5s.2,0,.3,0c11.9,7.2,18.1-10.2,36.5-9-3.5-11.8,4.6-18.1,14.7-15.3,1.7,0,1.6-1,.8-4.7-.8-3.6.4-6.3,3.1-6.7,7.6-1.1,15.3-2.2,23.4-3.3,1.6-4.5,3.3-9.1,5.5-15.3-13.3-4.2-18.2-22.1-31.3-25.6Z"/>
 </g><g>
 <path class="st0" d="M6480.2,261.8c-10.3,0-21.2-2-30.7-3.2-12.3-10.8-19.5-23-22.6-38.3-.9-5.2,3.6-11.1,4.6-16.8,16.2-8.7,32.9-3,49.7,2.7,6.5.3,11.6,2.6,11.2,3.2,5.3,13.3,2.6,31,5.9,45.4-.8,2.5-3.7,6.9-18.1,6.9h0Z"/>
 <path d="M6449.8,194v10c11-.3,27.6,7,38.7,8.6,3.4,13.1,2,27.8,4.6,41.5-10,6-29.4.7-41.4-.3-10.8-9.9-17-20.6-19.9-34.5-.1-3.1,3.1-8.4,4-12.3,4.5-2,9.1-3,14.1-3v-10M6449.8,194c-7.4,0-14.9,1.7-22.9,6.3-.8,7.6-6.5,13.8-5,21,3.6,17.3,11.8,30.5,25.5,42.1,11.9.4,51.5,11.6,56-8.4-2.5-11.2-1.7-22.7-3.4-34-1.7-11.6-.9-18.5-17.4-19.5-11.1-3.6-21.8-7.4-32.9-7.4h0Z"/>
 </g><g>
 <path class="st0" d="M803.5,3629.8c-31.7-15.4-55.2-52.6-16.6-76.9,7.9,3.7,15.5,13,23.8,12.9,5.9,1.2,10.5,2.2,16.7,12.5,14.2,23.7,4.6,29.4-9.3,46.4-5.2,1.8-9.8,3.3-14.6,5.1Z"/>
 <path d="M788.4,3557.6h0M787.1,3558.6c19.1,17.9,25.1,5.3,35.8,22.1,12.1,20.3,5.2,24.1-8,39.7-4,1.4-7.5,2.6-11.3,3.9-26.1-13.7-47.3-44.2-16.7-65.8M786.9,3547.9c-45.3,20.5-21.1,73.4,16.4,87.2,5.4-1.8,10.8-3.7,17.6-6.1,17.6-21.7,25.7-25.5,10.7-53.2-12.4-20.7-22.1-10.4-33-21-2.9-2.9-7.5-6.3-11.8-6.9h0Z"/>
 </g><g>
 <path class="st0" d="M95.2,5287.1c-1.4.1-4-1.2-3.8-2.7.4-10.2-3.7-20-1.9-29.6-6.1-18.3-7.4-22.2,3.2-37.7h0c.5-.7,1.4-1.4,1.8-1.6,13.6-2.7,26.4-7.3,39.3-11.4-1.9,12.8-19.5,21.3-14.6,38.7,1.1,12.6-4.2,24.2-9.5,36.4-1.5,3.6-10,6.4-14.5,8h0Z"/>
 <path d="M124.2,5212.5c-20.7,18.3.9,57.1-27.8,68.9.3-7.3-3.8-15.6-2.2-21.9.6-2.2.6-4.5-.2-6.5-5-17.7-7.7-16.1,2.6-32.7,9.5-1.9,18.6-4.7,27.5-7.7M137.2,5197.7c-14.7,4.7-28.7,10-43.6,12.9-1.8.4-3.9,2.1-5,3.7-12,17.7-10.2,22.7-3.9,42.1-2.9,9.4,2.5,18.2,1.7,27.6-.4,4.6,4.2,8.1,8.8,8.1s2.4-.2,3.4-.7c5.5-3,13.1-4.2,15.7-10.4,5.5-12.5,11.2-25.1,9.8-39.1-4.9-19.6,21.5-27.3,13-44.2h0Z"/>
 </g><g>
 <path class="st0" d="M5846.5,1535c-12.4-2.1-4.7-23.6,5.9-26.4,4.6,0,9.5,0,14.4-1.3-2.2,12.1-6.9,26.1-20.4,27.8h.1ZM5880.6,1492c2.5-6.3,5.2-13.5,4.1-21.8,0-8.4,4.9-17.1,5.3-25.9,7.7-5.4,27.3-12.5,33.6-3.6,2.6,2.5,3.5,2.8,1.9,5.6-9.8,26.8-17.3,34.9-44.9,45.8v-.2h0Z"/>
 <path d="M5912.8,1441.7h0c5.9.3,6,1.7,7.8,3.2-9,19.9-9.1,28.5-31.7,38,.9-4,1.4-8.3.8-13.1.2-7,4.2-14.8,5-22.5,5.2-3,12.2-5.7,18.1-5.7M5860.2,1513.4c1,5.5-8.7,16.8-13.6,16.6-4-4.9,1.6-14.1,7-16.4,2.1,0,4.3,0,6.8-.2M5912.8,1431.7c-9.7,0-20.7,4.9-27.7,10,.2,9.7-5.7,19.3-5.3,29,1.2,8.4-2.3,15.5-5,22.8-3.1,10.6-13.3,9.9-23.1,10.1-16,3.6-24.6,34.2-5.1,36.4,10,0,22.6-13.2,23.5-24.3,2.9-22,21.4-19.6,35.4-30.5,17.4-10.3,16-20.6,24.5-36.5,5.5-9.6-8.7-17.5-17.2-17h0Z"/>
 </g><g>
 <path class="st0" d="M6050.1,1325.1c-4.8,0-12.7-11-13.8-16.5-.5-8.1-3.1-16-7.7-24-1-2.6-1.3-5.7,1.6-6,19.6,4.5,16-3.4,35.8,13,16.2,8.9,12.8,21.3-1.2,25.8-4.4,1.2-9.4,4.7-14.7,7.7h0Z"/>
 <path d="M6032.9,1281.6h0M6034.3,1284.7c9.3,2.1,11.6-2.5,20.7,4.9,4.5,5.3,15.6,8.5,16.8,15.1h0c-2.3,9.7-14.5,7.8-22.2,15-11.5-8.6-7.7-23.5-15.2-35M6030.1,1273.6c-6.9,0-8.8,7.8-5.9,13.4,4,6.9,6.7,14.1,7.2,22.2,1.1,6.6,10.4,20.9,18.8,20.9s2.8-.4,4.1-1.3c11.3-9.5,23-5.5,27.3-21.6,3.4-12.5-12.4-18.1-19.8-25.2-14.2-11.1-18.4-4.6-31.7-8.4Z"/>
 </g><g>
 <path class="st0" d="M721.8,3531.1c.6-9.3-2.2-16.9-5.1-23.2-7.8-17.4-9.8-36.7-5.8-54.6,6.4-.5,11.5-2.4,15.6-7.9,5.3,13.2,1.7,27.4.8,42.1-2.3,20.2-.4,27.1-5.1,43.4-.2,0-.3.2-.5.2h0Z"/>
 <path d="M723.8,3454.5c1.4,15-2.6,36.2-2.9,50.4-6.6-15.1-8.6-31.6-5.8-47.3,3-.5,6-1.5,8.8-3.2M724.8,3438.6c-4.1,8.1-8.9,9.6-17.4,9.8l-.7.7h0c-5.3,20.4-3.1,41.8,5.4,60.9,3.5,7.5,5.5,14.6,4.5,22.7,1.9,4.9,6.6,4.2,9.9,1.4,2.6-7.1,3-15.5,4.9-22.9-3.2-12.1,11.9-70.3-6.6-72.5h0Z"/>
 </g><g>
 <path class="st0" d="M5247.2,2376.4c-5.5,0-11.2-1.3-16.8-1.5-7.1-7.3-5.8-16.5-8.2-25.5,7.2-16.3,35.2-11,39.3,5,3.7,11.1-2.3,22.4-14.6,22.1h.3Z"/>
 <path d="M5236.4,2344.6c8.3-.2,18.5,2.1,20.7,11.4,1,2.5,2,9.5-3,13.6-4.5,4.1-15.5.8-21.2.7-3.8-4.6-3.8-13.3-5.2-20,2.4-2.2,5.1-5.8,8.8-5.4M5236.4,2334.6c-8.1-.3-18.1,7.5-19,15.4,2.7,9.5.7,20.5,11.1,29.8,55.9,12.8,47.3-48.2,7.9-45.3h0Z"/>
 </g><g>
 <path class="st0" d="M5442.1,2144.1c-7.8.9,2.3-13.3.1-18.6-1.6-8.5,3.3-19.2,8.9-25.9,11.2-12,15.6-10.8,16,8.1,1.2,20.6-10.4,34.3-25.1,36.3h.1Z"/>
 <path d="M5462.3,2096.9h0M5460.9,2097.5c4.5,15.5-1.5,37.1-15.9,41,1.3-4.2,3-8.3,2.2-14-2.2-7.1,6.8-23.4,13.8-27M5462.1,2086.9c-11.4,0-27.9,22.9-24.8,39.4.1,8.7-9.6,22.3,4.8,22.7,11.7,0,31.8-14.1,30-41.3,0-15.1-4.3-20.8-10-20.8h0Z"/>
 </g><g>
 <path class="st0" d="M6016.6,925.9c-3.7,0-11-6.5-13.2-10.3-.3-9.5-1.2-18.8,3.2-26.9,10.1-9.6,19.5-8.7,25.7,5.9-6.5,10.3-12.1,20-15.1,31.1h-.5v.2h-.1Z"/>
 <path d="M6019.3,877.4c-20.9.9-22.8,22.5-20.9,39.5,2,4.7,11.4,14,18.2,14s3.8-.8,5.1-2.8c3-11.9,9.3-22.2,16-32.7-3.5-11.8-10.3-18-18.4-18Z"/>
 </g><g>
 <path class="st0" d="M5542.2,1945.6c-7.9-2.3-12.4-10.9-20.9-12.4-5.1-1-7-6.7-7.5-11.6-3.7-13.5-.6-25.7,10.8-24.6,9.4,4.7,24.3,11.5,28.6,21.8-.4,17.6,11,27.3-11,26.6v.2Z"/>
 <path d="M5523.6,1902.1h.7c8.2,5.5,18,9.3,23.9,17.2.5,6.4,1.2,13.5,2.6,20.8-2.9.2-5.8.3-8.6.5h0c-6.6-4.2-11.1-10.2-19.8-12.2-2.1-.5-2.8-2.8-3-3.7-1.3-8.5-5.6-22.6,4.2-22.6M5523.6,1892.1c-16.7-.2-18.2,18.6-14.7,30.8.7,6.9,4.4,13.8,11.2,15.2,8.1,1.6,13.3,11.9,22.1,12.5,6.5.3,20.4-.3,18.4-12.4-2.5-9.2-.5-17.5-4.4-24.9-5.6-7.7-24.3-20.4-32.6-21.3h0Z"/>
 </g><g>
  <path class="st0" d="M2734.3,4538.2c-2.4,0-4.6-1.9-5-4.3-2.2-5.2-5.4-9.8-8.8-14.6-2.5-4.8-11.3-12-4.9-16.9,5.6-2.6,17.8-9.8,23.3-7.5,7.1,5.7,16.1,3.2,19.8,8.4,1.7,6.3-4.9,10.1-1.4,18.3,1.5,6.8,0,6.7-10.3,11.6-5.3,2.2-9,4.5-12.9,5.2l.2-.2Z"/>
 <path d="M2736.4,4499.1c7.3,4.5,13,5.2,17.9,6.3-4.6,9.8-2.5,14-1.3,19,.6.5-14.6,7.1-18.7,8.8-3.7-9.9-10.9-17.6-16-26.6,5.4-3.4,12-5.1,18.1-7.5M2736.4,4489.1c-19.9,5.6-39.1,10.4-19.9,33,7,7.2,8.7,25,21.6,20.3,8.2-4.7,29.1-7.7,24.3-22.5-1-3.5-1.4-5.1,1.1-10.4,3.3-6.6-1.8-14.1-8.9-14.5-5.6,0-11.7-5.3-18-6.1h0l-.2.2Z"/>
 </g></g><g><circle cx="1510" cy="5262" r="400" fill="none" stroke="#660000" stroke-width="20"/><circle cx="1240" cy="4951" r="400" fill="none" stroke="#20124D" stroke-width="20"/></g><g><text x="3800" y="700" font-size="550pt" text-anchor="middle" dominant-baseline="middle" fill="#000000" stroke="#FFFFFF" stroke-width="25pt" stroke-linejoin="round" paint-order="stroke">sand</text><text x="3800" y="1380" font-size="350pt" text-anchor="middle" dominant-baseline="middle" fill="#000000" stroke="#FFFFFF" stroke-width="25pt" stroke-linejoin="round" paint-order="stroke">すな</text><text x="3800" y="2175" font-size="550pt" text-anchor="middle" dominant-baseline="middle" fill="#000000" stroke="#FFFFFF" stroke-width="25pt" stroke-linejoin="round" paint-order="stroke">砂</text></g><g><text x="280" y="5333" font-size="88pt" text-anchor="middle" dominant-baseline="middle" fill="#000000" stroke="#FFFFFF" stroke-width="25pt" stroke-linejoin="round" paint-order="stroke"><tspan>八雲</tspan><tspan x="280" dy="106pt">Yakumo</tspan></text><text x="383" y="4750" font-size="88pt" text-anchor="middle" dominant-baseline="middle" fill="#000000" stroke="#FFFFFF" stroke-width="25pt" stroke-linejoin="round" paint-order="stroke"><tspan>長万部</tspan><tspan x="383" dy="106pt">Oshamambe</tspan></text><text x="747" y="5248" font-size="88pt" text-anchor="middle" dominant-baseline="middle" fill="#000000" stroke="#FFFFFF" stroke-width="25pt" stroke-linejoin="round" paint-order="stroke"><tspan>幌別</tspan><tspan x="747" dy="106pt">Horobetsu</tspan></text><text x="1200" y="4751" font-size="88pt" text-anchor="middle" dominant-baseline="middle" fill="#000000" stroke="#FFFFFF" stroke-width="25pt" stroke-linejoin="round" paint-order="stroke"><tspan>平取</tspan><tspan x="1200" dy="106pt">Biratori</tspan></text><text x="1580" y="4930" font-size="88pt" text-anchor="middle" dominant-baseline="middle" fill="#000000" stroke="#FFFFFF" stroke-width="25pt" stroke-linejoin="round" paint-order="stroke"><tspan>貫気別</tspan><tspan x="1580" dy="106pt">Nukkibetsu</tspan></text><text x="1300" y="5269" font-size="88pt" text-anchor="middle" dominant-baseline="middle" fill="#000000" stroke="#FFFFFF" stroke-width="25pt" stroke-linejoin="round" paint-order="stroke"><tspan>新冠</tspan><tspan x="1300" dy="106pt">Niikappu</tspan></text><text x="1780" y="5270" font-size="88pt" text-anchor="middle" dominant-baseline="middle" fill="#000000" stroke="#FFFFFF" stroke-width="25pt" stroke-linejoin="round" paint-order="stroke"><tspan>様似</tspan><tspan x="1780" dy="106pt">Samani</tspan></text><text x="1700" y="4580" font-size="88pt" text-anchor="middle" dominant-baseline="middle" fill="#000000" stroke="#FFFFFF" stroke-width="25pt" stroke-linejoin="round" paint-order="stroke"><tspan>帯広</tspan><tspan x="1700" dy="106pt">Obihiro</tspan></text><text x="2250" y="4862" font-size="88pt" text-anchor="middle" dominant-baseline="middle" fill="#000000" stroke="#FFFFFF" stroke-width="25pt" stroke-linejoin="round" paint-order="stroke"><tspan>釧路</tspan><tspan x="2250" dy="106pt">Kushiro</tspan></text><text x="1922" y="4070" font-size="88pt" text-anchor="middle" dominant-baseline="middle" fill="#000000" stroke="#FFFFFF" stroke-width="25pt" stroke-linejoin="round" paint-order="stroke"><tspan>美幌</tspan><tspan x="1922" dy="106pt">Bihoro</tspan></text><text x="880" y="4270" font-size="88pt" text-anchor="middle" dominant-baseline="middle" fill="#000000" stroke="#FFFFFF" stroke-width="25pt" stroke-linejoin="round" paint-order="stroke"><tspan>旭川</tspan><tspan x="880" dy="106pt">Asahikawa</tspan></text><text x="1265" y="3800" font-size="88pt" text-anchor="middle" dominant-baseline="middle" fill="#000000" stroke="#FFFFFF" stroke-width="25pt" stroke-linejoin="round" paint-order="stroke"><tspan>名寄</tspan><tspan x="1265" dy="106pt">Nayoro</tspan></text><text x="848" y="3310" font-size="88pt" text-anchor="middle" dominant-baseline="middle" fill="#000000" stroke="#FFFFFF" stroke-width="25pt" stroke-linejoin="round" paint-order="stroke"><tspan>宗谷</tspan><tspan x="848" dy="106pt">Soya</tspan></text><text x="1750" y="2620" font-size="88pt" text-anchor="middle" dominant-baseline="middle" fill="#000000" stroke="#FFFFFF" stroke-width="25pt" stroke-linejoin="round" paint-order="stroke"><tspan>落帆</tspan><tspan x="1750" dy="106pt">Ochiho</tspan></text><text x="848" y="2620" font-size="88pt" text-anchor="middle" dominant-baseline="middle" fill="#000000" stroke="#FFFFFF" stroke-width="25pt" stroke-linejoin="round" paint-order="stroke"><tspan>多蘭泊</tspan><tspan x="848" dy="106pt">Tarantomari</tspan></text><text x="848" y="2320" font-size="88pt" text-anchor="middle" dominant-baseline="middle" fill="#000000" stroke="#FFFFFF" stroke-width="25pt" stroke-linejoin="round" paint-order="stroke"><tspan>真岡</tspan><tspan x="848" dy="106pt">Maoka</tspan></text><text x="1550" y="2020" font-size="88pt" text-anchor="middle" dominant-baseline="middle" fill="#000000" stroke="#FFFFFF" stroke-width="25pt" stroke-linejoin="round" paint-order="stroke"><tspan>白浦</tspan><tspan x="1550" dy="106pt">Shiraura</tspan></text><text x="721" y="1612" font-size="88pt" text-anchor="middle" dominant-baseline="middle" fill="#000000" stroke="#FFFFFF" stroke-width="25pt" stroke-linejoin="round" paint-order="stroke"><tspan>ライチシカ</tspan><tspan x="721" dy="106pt">Raichishka</tspan></text><text x="1700" y="1320" font-size="88pt" text-anchor="middle" dominant-baseline="middle" fill="#000000" stroke="#FFFFFF" stroke-width="25pt" stroke-linejoin="round" paint-order="stroke"><tspan>内路</tspan><tspan x="1700" dy="106pt">Nairo</tspan></text><text x="2520" y="4522" font-size="88pt" text-anchor="middle" dominant-baseline="middle" fill="#000000" stroke="#FFFFFF" stroke-width="25pt" stroke-linejoin="round" paint-order="stroke"><tspan>根室</tspan><tspan x="2520" dy="106pt">Nemuro</tspan></text></g><g><g transform="translate(408, 5195) scale(0.8888888888888888) translate(-120, -120)"><path d="M144.8,162.6c-.8,0-1.6-.2-2.3-.6l-22.4-11.8-22.4,11.8c-.7.4-1.5.6-2.3.6s-2.1-.3-2.9-1c-1.5-1.1-2.3-3-2-4.9l4.3-24.9-18.1-17.7c-1.4-1.3-1.9-3.3-1.3-5.1.6-1.8,2.2-3.1,4-3.4l25-3.6,11.2-22.7c.8-1.7,2.6-2.8,4.5-2.8h0c1.9,0,3.6,1.1,4.5,2.8l11.2,22.7,25,3.6c1.9.3,3.4,1.6,4,3.4.6,1.8,0,3.8-1.3,5.1l-18.1,17.7,4.3,24.9c.3,1.9-.4,3.8-2,4.9-.9.6-1.9,1-2.9,1Z" fill="#F1C232" stroke="#000000" stroke-width="10"/></g><g transform="translate(474, 5011) scale(0.8888888888888888) translate(-120, -120)"><path d="M144.8,162.6c-.8,0-1.6-.2-2.3-.6l-22.4-11.8-22.4,11.8c-.7.4-1.5.6-2.3.6s-2.1-.3-2.9-1c-1.5-1.1-2.3-3-2-4.9l4.3-24.9-18.1-17.7c-1.4-1.3-1.9-3.3-1.3-5.1.6-1.8,2.2-3.1,4-3.4l25-3.6,11.2-22.7c.8-1.7,2.6-2.8,4.5-2.8h0c1.9,0,3.6,1.1,4.5,2.8l11.2,22.7,25,3.6c1.9.3,3.4,1.6,4,3.4.6,1.8,0,3.8-1.3,5.1l-18.1,17.7,4.3,24.9c.3,1.9-.4,3.8-2,4.9-.9.6-1.9,1-2.9,1Z" fill="#F1C232" stroke="#000000" stroke-width="10"/></g><g transform="translate(758, 5073) scale(0.8888888888888888) translate(-120, -120)"><path d="M144.8,162.6c-.8,0-1.6-.2-2.3-.6l-22.4-11.8-22.4,11.8c-.7.4-1.5.6-2.3.6s-2.1-.3-2.9-1c-1.5-1.1-2.3-3-2-4.9l4.3-24.9-18.1-17.7c-1.4-1.3-1.9-3.3-1.3-5.1.6-1.8,2.2-3.1,4-3.4l25-3.6,11.2-22.7c.8-1.7,2.6-2.8,4.5-2.8h0c1.9,0,3.6,1.1,4.5,2.8l11.2,22.7,25,3.6c1.9.3,3.4,1.6,4,3.4.6,1.8,0,3.8-1.3,5.1l-18.1,17.7,4.3,24.9c.3,1.9-.4,3.8-2,4.9-.9.6-1.9,1-2.9,1Z" fill="#F1C232" stroke="#000000" stroke-width="10"/></g><g transform="translate(1174, 5003) scale(0.8888888888888888) translate(-120, -120)"><path d="M144.8,162.6c-.8,0-1.6-.2-2.3-.6l-22.4-11.8-22.4,11.8c-.7.4-1.5.6-2.3.6s-2.1-.3-2.9-1c-1.5-1.1-2.3-3-2-4.9l4.3-24.9-18.1-17.7c-1.4-1.3-1.9-3.3-1.3-5.1.6-1.8,2.2-3.1,4-3.4l25-3.6,11.2-22.7c.8-1.7,2.6-2.8,4.5-2.8h0c1.9,0,3.6,1.1,4.5,2.8l11.2,22.7,25,3.6c1.9.3,3.4,1.6,4,3.4.6,1.8,0,3.8-1.3,5.1l-18.1,17.7,4.3,24.9c.3,1.9-.4,3.8-2,4.9-.9.6-1.9,1-2.9,1Z" fill="#F1C232" stroke="#000000" stroke-width="10"/></g><g transform="translate(1240, 4951) scale(1) translate(-120, -120)"><path d="M80,159.6c-1.8,0-3.4-1-4.3-2.5s-.9-3.5,0-5l40-69.3c.9-1.5,2.5-2.5,4.3-2.5s3.4,1,4.3,2.5l40,69.3c.9,1.5.9,3.5,0,5s-2.5,2.5-4.3,2.5h-80Z" fill="#674EA7" stroke="#000000" stroke-width="10"/></g><g transform="translate(1265, 5106) scale(0.8888888888888888) translate(-120, -120)"><path d="M144.8,162.6c-.8,0-1.6-.2-2.3-.6l-22.4-11.8-22.4,11.8c-.7.4-1.5.6-2.3.6s-2.1-.3-2.9-1c-1.5-1.1-2.3-3-2-4.9l4.3-24.9-18.1-17.7c-1.4-1.3-1.9-3.3-1.3-5.1.6-1.8,2.2-3.1,4-3.4l25-3.6,11.2-22.7c.8-1.7,2.6-2.8,4.5-2.8h0c1.9,0,3.6,1.1,4.5,2.8l11.2,22.7,25,3.6c1.9.3,3.4,1.6,4,3.4.6,1.8,0,3.8-1.3,5.1l-18.1,17.7,4.3,24.9c.3,1.9-.4,3.8-2,4.9-.9.6-1.9,1-2.9,1Z" fill="#F1C232" stroke="#000000" stroke-width="10"/></g><g transform="translate(1510, 5262) scale(0.8888888888888888) translate(-120, -120)"><path d="M120,165c-1.8,0-3.5-1-4.4-2.6l-13.4-24.6-24.6-13.4c-1.6-.9-2.6-2.6-2.6-4.4s1-3.5,2.6-4.4l24.6-13.4,13.4-24.6c.9-1.6,2.6-2.6,4.4-2.6s3.5,1,4.4,2.6l13.4,24.6,24.6,13.4c1.6.9,2.6,2.6,2.6,4.4s-1,3.5-2.6,4.4l-24.6,13.4-13.4,24.6c-.9,1.6-2.6,2.6-4.4,2.6Z" fill="#CC0000" stroke="#000000" stroke-width="10"/></g><g transform="translate(1566, 4836) scale(0.8888888888888888) translate(-120, -120)"><path d="M144.8,162.6c-.8,0-1.6-.2-2.3-.6l-22.4-11.8-22.4,11.8c-.7.4-1.5.6-2.3.6s-2.1-.3-2.9-1c-1.5-1.1-2.3-3-2-4.9l4.3-24.9-18.1-17.7c-1.4-1.3-1.9-3.3-1.3-5.1.6-1.8,2.2-3.1,4-3.4l25-3.6,11.2-22.7c.8-1.7,2.6-2.8,4.5-2.8h0c1.9,0,3.6,1.1,4.5,2.8l11.2,22.7,25,3.6c1.9.3,3.4,1.6,4,3.4.6,1.8,0,3.8-1.3,5.1l-18.1,17.7,4.3,24.9c.3,1.9-.4,3.8-2,4.9-.9.6-1.9,1-2.9,1Z" fill="#F1C232" stroke="#000000" stroke-width="10"/></g><g transform="translate(2057, 4800) scale(0.8888888888888888) translate(-120, -120)"><path d="M144.8,162.6c-.8,0-1.6-.2-2.3-.6l-22.4-11.8-22.4,11.8c-.7.4-1.5.6-2.3.6s-2.1-.3-2.9-1c-1.5-1.1-2.3-3-2-4.9l4.3-24.9-18.1-17.7c-1.4-1.3-1.9-3.3-1.3-5.1.6-1.8,2.2-3.1,4-3.4l25-3.6,11.2-22.7c.8-1.7,2.6-2.8,4.5-2.8h0c1.9,0,3.6,1.1,4.5,2.8l11.2,22.7,25,3.6c1.9.3,3.4,1.6,4,3.4.6,1.8,0,3.8-1.3,5.1l-18.1,17.7,4.3,24.9c.3,1.9-.4,3.8-2,4.9-.9.6-1.9,1-2.9,1Z" fill="#F1C232" stroke="#000000" stroke-width="10"/></g><g transform="translate(1922, 4331) scale(0.8888888888888888) translate(-120, -120)"><path d="M144.8,162.6c-.8,0-1.6-.2-2.3-.6l-22.4-11.8-22.4,11.8c-.7.4-1.5.6-2.3.6s-2.1-.3-2.9-1c-1.5-1.1-2.3-3-2-4.9l4.3-24.9-18.1-17.7c-1.4-1.3-1.9-3.3-1.3-5.1.6-1.8,2.2-3.1,4-3.4l25-3.6,11.2-22.7c.8-1.7,2.6-2.8,4.5-2.8h0c1.9,0,3.6,1.1,4.5,2.8l11.2,22.7,25,3.6c1.9.3,3.4,1.6,4,3.4.6,1.8,0,3.8-1.3,5.1l-18.1,17.7,4.3,24.9c.3,1.9-.4,3.8-2,4.9-.9.6-1.9,1-2.9,1Z" fill="#F1C232" stroke="#000000" stroke-width="10"/></g><g transform="translate(1232, 4375) scale(0.8888888888888888) translate(-120, -120)"><path d="M144.8,162.6c-.8,0-1.6-.2-2.3-.6l-22.4-11.8-22.4,11.8c-.7.4-1.5.6-2.3.6s-2.1-.3-2.9-1c-1.5-1.1-2.3-3-2-4.9l4.3-24.9-18.1-17.7c-1.4-1.3-1.9-3.3-1.3-5.1.6-1.8,2.2-3.1,4-3.4l25-3.6,11.2-22.7c.8-1.7,2.6-2.8,4.5-2.8h0c1.9,0,3.6,1.1,4.5,2.8l11.2,22.7,25,3.6c1.9.3,3.4,1.6,4,3.4.6,1.8,0,3.8-1.3,5.1l-18.1,17.7,4.3,24.9c.3,1.9-.4,3.8-2,4.9-.9.6-1.9,1-2.9,1Z" fill="#F1C232" stroke="#000000" stroke-width="10"/></g><g transform="translate(1257, 4067) scale(0.8888888888888888) translate(-120, -120)"><path d="M144.8,162.6c-.8,0-1.6-.2-2.3-.6l-22.4-11.8-22.4,11.8c-.7.4-1.5.6-2.3.6s-2.1-.3-2.9-1c-1.5-1.1-2.3-3-2-4.9l4.3-24.9-18.1-17.7c-1.4-1.3-1.9-3.3-1.3-5.1.6-1.8,2.2-3.1,4-3.4l25-3.6,11.2-22.7c.8-1.7,2.6-2.8,4.5-2.8h0c1.9,0,3.6,1.1,4.5,2.8l11.2,22.7,25,3.6c1.9.3,3.4,1.6,4,3.4.6,1.8,0,3.8-1.3,5.1l-18.1,17.7,4.3,24.9c.3,1.9-.4,3.8-2,4.9-.9.6-1.9,1-2.9,1Z" fill="#F1C232" stroke="#000000" stroke-width="10"/></g><g transform="translate(1073, 3439) scale(0.8888888888888888) translate(-120, -120)"><path d="M144.8,162.6c-.8,0-1.6-.2-2.3-.6l-22.4-11.8-22.4,11.8c-.7.4-1.5.6-2.3.6s-2.1-.3-2.9-1c-1.5-1.1-2.3-3-2-4.9l4.3-24.9-18.1-17.7c-1.4-1.3-1.9-3.3-1.3-5.1.6-1.8,2.2-3.1,4-3.4l25-3.6,11.2-22.7c.8-1.7,2.6-2.8,4.5-2.8h0c1.9,0,3.6,1.1,4.5,2.8l11.2,22.7,25,3.6c1.9.3,3.4,1.6,4,3.4.6,1.8,0,3.8-1.3,5.1l-18.1,17.7,4.3,24.9c.3,1.9-.4,3.8-2,4.9-.9.6-1.9,1-2.9,1Z" fill="#F1C232" stroke="#000000" stroke-width="10"/></g><g transform="translate(1534, 2609) scale(0.8888888888888888) translate(-120, -120)"><path d="M144.8,162.6c-.8,0-1.6-.2-2.3-.6l-22.4-11.8-22.4,11.8c-.7.4-1.5.6-2.3.6s-2.1-.3-2.9-1c-1.5-1.1-2.3-3-2-4.9l4.3-24.9-18.1-17.7c-1.4-1.3-1.9-3.3-1.3-5.1.6-1.8,2.2-3.1,4-3.4l25-3.6,11.2-22.7c.8-1.7,2.6-2.8,4.5-2.8h0c1.9,0,3.6,1.1,4.5,2.8l11.2,22.7,25,3.6c1.9.3,3.4,1.6,4,3.4.6,1.8,0,3.8-1.3,5.1l-18.1,17.7,4.3,24.9c.3,1.9-.4,3.8-2,4.9-.9.6-1.9,1-2.9,1Z" fill="#F1C232" stroke="#000000" stroke-width="10"/></g><g transform="translate(1141, 2559) scale(0.8888888888888888) translate(-120, -120)"><path d="M144.8,162.6c-.8,0-1.6-.2-2.3-.6l-22.4-11.8-22.4,11.8c-.7.4-1.5.6-2.3.6s-2.1-.3-2.9-1c-1.5-1.1-2.3-3-2-4.9l4.3-24.9-18.1-17.7c-1.4-1.3-1.9-3.3-1.3-5.1.6-1.8,2.2-3.1,4-3.4l25-3.6,11.2-22.7c.8-1.7,2.6-2.8,4.5-2.8h0c1.9,0,3.6,1.1,4.5,2.8l11.2,22.7,25,3.6c1.9.3,3.4,1.6,4,3.4.6,1.8,0,3.8-1.3,5.1l-18.1,17.7,4.3,24.9c.3,1.9-.4,3.8-2,4.9-.9.6-1.9,1-2.9,1Z" fill="#F1C232" stroke="#000000" stroke-width="10"/></g><g transform="translate(1166, 2483) scale(0.8888888888888888) translate(-120, -120)"><path d="M144.8,162.6c-.8,0-1.6-.2-2.3-.6l-22.4-11.8-22.4,11.8c-.7.4-1.5.6-2.3.6s-2.1-.3-2.9-1c-1.5-1.1-2.3-3-2-4.9l4.3-24.9-18.1-17.7c-1.4-1.3-1.9-3.3-1.3-5.1.6-1.8,2.2-3.1,4-3.4l25-3.6,11.2-22.7c.8-1.7,2.6-2.8,4.5-2.8h0c1.9,0,3.6,1.1,4.5,2.8l11.2,22.7,25,3.6c1.9.3,3.4,1.6,4,3.4.6,1.8,0,3.8-1.3,5.1l-18.1,17.7,4.3,24.9c.3,1.9-.4,3.8-2,4.9-.9.6-1.9,1-2.9,1Z" fill="#F1C232" stroke="#000000" stroke-width="10"/></g><g transform="translate(1296, 2066) scale(0.8888888888888888) translate(-120, -120)"><path d="M144.8,162.6c-.8,0-1.6-.2-2.3-.6l-22.4-11.8-22.4,11.8c-.7.4-1.5.6-2.3.6s-2.1-.3-2.9-1c-1.5-1.1-2.3-3-2-4.9l4.3-24.9-18.1-17.7c-1.4-1.3-1.9-3.3-1.3-5.1.6-1.8,2.2-3.1,4-3.4l25-3.6,11.2-22.7c.8-1.7,2.6-2.8,4.5-2.8h0c1.9,0,3.6,1.1,4.5,2.8l11.2,22.7,25,3.6c1.9.3,3.4,1.6,4,3.4.6,1.8,0,3.8-1.3,5.1l-18.1,17.7,4.3,24.9c.3,1.9-.4,3.8-2,4.9-.9.6-1.9,1-2.9,1Z" fill="#F1C232" stroke="#000000" stroke-width="10"/></g><g transform="translate(1106, 1602) scale(0.8888888888888888) translate(-120, -120)"><path d="M144.8,162.6c-.8,0-1.6-.2-2.3-.6l-22.4-11.8-22.4,11.8c-.7.4-1.5.6-2.3.6s-2.1-.3-2.9-1c-1.5-1.1-2.3-3-2-4.9l4.3-24.9-18.1-17.7c-1.4-1.3-1.9-3.3-1.3-5.1.6-1.8,2.2-3.1,4-3.4l25-3.6,11.2-22.7c.8-1.7,2.6-2.8,4.5-2.8h0c1.9,0,3.6,1.1,4.5,2.8l11.2,22.7,25,3.6c1.9.3,3.4,1.6,4,3.4.6,1.8,0,3.8-1.3,5.1l-18.1,17.7,4.3,24.9c.3,1.9-.4,3.8-2,4.9-.9.6-1.9,1-2.9,1Z" fill="#F1C232" stroke="#000000" stroke-width="10"/></g><g transform="translate(1452, 1346) scale(0.8888888888888888) translate(-120, -120)"><path d="M144.8,162.6c-.8,0-1.6-.2-2.3-.6l-22.4-11.8-22.4,11.8c-.7.4-1.5.6-2.3.6s-2.1-.3-2.9-1c-1.5-1.1-2.3-3-2-4.9l4.3-24.9-18.1-17.7c-1.4-1.3-1.9-3.3-1.3-5.1.6-1.8,2.2-3.1,4-3.4l25-3.6,11.2-22.7c.8-1.7,2.6-2.8,4.5-2.8h0c1.9,0,3.6,1.1,4.5,2.8l11.2,22.7,25,3.6c1.9.3,3.4,1.6,4,3.4.6,1.8,0,3.8-1.3,5.1l-18.1,17.7,4.3,24.9c.3,1.9-.4,3.8-2,4.9-.9.6-1.9,1-2.9,1Z" fill="#F1C232" stroke="#000000" stroke-width="10"/></g><g transform="translate(2347, 4454) scale(0.8888888888888888) translate(-120, -120)"><path d="M144.8,162.6c-.8,0-1.6-.2-2.3-.6l-22.4-11.8-22.4,11.8c-.7.4-1.5.6-2.3.6s-2.1-.3-2.9-1c-1.5-1.1-2.3-3-2-4.9l4.3-24.9-18.1-17.7c-1.4-1.3-1.9-3.3-1.3-5.1.6-1.8,2.2-3.1,4-3.4l25-3.6,11.2-22.7c.8-1.7,2.6-2.8,4.5-2.8h0c1.9,0,3.6,1.1,4.5,2.8l11.2,22.7,25,3.6c1.9.3,3.4,1.6,4,3.4.6,1.8,0,3.8-1.3,5.1l-18.1,17.7,4.3,24.9c.3,1.9-.4,3.8-2,4.9-.9.6-1.9,1-2.9,1Z" fill="#F1C232" stroke="#000000" stroke-width="10"/></g></g><g><g><g transform="translate(4600, 4700) scale(2.6666666666666665) translate(-120, -120)"><path d="M144.8,162.6c-.8,0-1.6-.2-2.3-.6l-22.4-11.8-22.4,11.8c-.7.4-1.5.6-2.3.6s-2.1-.3-2.9-1c-1.5-1.1-2.3-3-2-4.9l4.3-24.9-18.1-17.7c-1.4-1.3-1.9-3.3-1.3-5.1.6-1.8,2.2-3.1,4-3.4l25-3.6,11.2-22.7c.8-1.7,2.6-2.8,4.5-2.8h0c1.9,0,3.6,1.1,4.5,2.8l11.2,22.7,25,3.6c1.9.3,3.4,1.6,4,3.4.6,1.8,0,3.8-1.3,5.1l-18.1,17.7,4.3,24.9c.3,1.9-.4,3.8-2,4.9-.9.6-1.9,1-2.9,1Z" fill="#F1C232" stroke="#000000" stroke-width="10"/></g><text x="4890" y="4700" font-size="300pt" text-anchor="start" dominant-baseline="middle" fill="#000000" stroke="#FFFFFF" stroke-width="25pt" stroke-linejoin="round" paint-order="stroke">ota</text></g><g><g transform="translate(4600, 5100) scale(2.6666666666666665) translate(-120, -120)"><path d="M120,165c-1.8,0-3.5-1-4.4-2.6l-13.4-24.6-24.6-13.4c-1.6-.9-2.6-2.6-2.6-4.4s1-3.5,2.6-4.4l24.6-13.4,13.4-24.6c.9-1.6,2.6-2.6,4.4-2.6s3.5,1,4.4,2.6l13.4,24.6,24.6,13.4c1.6.9,2.6,2.6,2.6,4.4s-1,3.5-2.6,4.4l-24.6,13.4-13.4,24.6c-.9,1.6-2.6,2.6-4.4,2.6Z" fill="#CC0000" stroke="#000000" stroke-width="10"/></g><text x="4890" y="5100" font-size="300pt" text-anchor="start" dominant-baseline="middle" fill="#000000" stroke="#FFFFFF" stroke-width="25pt" stroke-linejoin="round" paint-order="stroke">hota</text></g><g><g transform="translate(4600, 5500) scale(3) translate(-120, -120)"><path d="M80,159.6c-1.8,0-3.4-1-4.3-2.5s-.9-3.5,0-5l40-69.3c.9-1.5,2.5-2.5,4.3-2.5s3.4,1,4.3,2.5l40,69.3c.9,1.5.9,3.5,0,5s-2.5,2.5-4.3,2.5h-80Z" fill="#674EA7" stroke="#000000" stroke-width="10"/></g><text x="4890" y="5500" font-size="300pt" text-anchor="start" dominant-baseline="middle" fill="#000000" stroke="#FFFFFF" stroke-width="25pt" stroke-linejoin="round" paint-order="stroke">piyóta</text></g></g></svg>